<svg xmlns="http://www.w3.org/2000/svg" viewBox="0 0 306.31 262.21"><defs><style>.cls-1{isolation:isolate;}.cls-2{fill:#ffcf48;opacity:0.4;}.cls-3{fill:#ffdb69;opacity:0.66;}.cls-3,.cls-4{mix-blend-mode:multiply;}.cls-4{fill:#ffeec0;opacity:0.68;}</style></defs><title>Recurso 7</title><g class="cls-1"><g id="Capa_2" data-name="Capa 2"><g id="Layer_1" data-name="Layer 1"><path class="cls-2" d="M32.68,187.44c26.1,6.77,63,12.21,101.2,41.55s96.71,31.17,138.84-56.74S223.65-18.12,124.56,24.89-24.85,172.51,32.68,187.44Z"/><path class="cls-3" d="M262,79.55c-79.87-72-127.41.34-170.45-39.63S-6.62,24.94.65,77.86,95.09,261.81,138,262.2C255.65,263.28,331.85,142.57,262,79.55Z"/><path class="cls-4" d="M288.87,100.66l-37.29-25c-40.53-18-32.26-78.47-87.4-75.52-56.3,3-131.69,71.78-148.47,123.21-8.36,25.59-15,66.86,5.6,89.25,14.35,15.57,37.44,13,56.76,9.15,23.82-4.72,42.92-17.42,67.34-10.85,15.74,4.24,25.72,13.77,39.5,22C260.68,278.08,343,159.29,288.87,100.66Z"/></g></g></g></svg>