<svg xmlns="http://www.w3.org/2000/svg" viewBox="0 0 165.3 96.88"><defs><style>.cls-1{fill:#0bb3e4;}</style></defs><title>Recurso 17</title><g id="Capa_2" data-name="Capa 2"><g id="Layer_1" data-name="Layer 1"><path class="cls-1" d="M0,22.32C4.49,39.74,12.79,63.43,33.2,71c7.69,2.86,15.23-.21,22.9-1.36,8.77-1.31,15,2.16,21,8.44C81.55,82.81,86,88.19,92.2,90c8.5,2.51,15.33-3.15,23.48-3.18,5.42,0,10,2.74,14.62,5.25,9.42,5.12,27.49,8.44,35-2.45-2-9.15-3.25-20.66-10.58-27.22C143.07,52,129.58,52.41,125.83,35c-2.63-12.23-9-22.73-23.5-19.77-6.22,1.26-13,6.08-19.62,4.21-7.11-2-7.75-8-11.79-12.75C61.61-4.18,46,.4,34.76,5.13,31.58,6.47-.34,21,0,22.32Z"/></g></g></svg>