<svg xmlns="http://www.w3.org/2000/svg" xmlns:xlink="http://www.w3.org/1999/xlink" viewBox="0 0 553.47 375.93"><defs><style>.cls-1{fill:none;}.cls-2{clip-path:url(#clip-path);}.cls-3{fill:#7875ea;}.cls-4{fill:#fff0e4;}</style><clipPath id="clip-path" transform="translate(-153.73 -240.42)"><path class="cls-1" d="M0,0H547.81a0,0,0,0,1,0,0V410.92a16.24,16.24,0,0,1-16.24,16.24H16.24A16.24,16.24,0,0,1,0,410.92V0A0,0,0,0,1,0,0Z"/></clipPath></defs><title>Recurso 6</title><g id="Capa_2" data-name="Capa 2"><g id="Layer_1" data-name="Layer 1"><g class="cls-2"><path class="cls-3" d="M575.84,335.08l-35.06-23.55c-38.11-16.91-30.34-73.79-82.19-71C405.65,243.36,334.76,308,319,356.37c-7.86,24.07-14.14,62.87,5.27,83.93,13.5,14.64,35.21,12.2,53.37,8.6,22.4-4.43,40.37-16.38,63.32-10.2,14.8,4,24.19,12.95,37.15,20.68C549.34,501.91,626.73,390.21,575.84,335.08Z" transform="translate(-153.73 -240.42)"/><path class="cls-4" d="M194.63,334.15A171.68,171.68,0,0,0,158,405.77c-17.41,72,17,154.34,122.93,191.64C356.11,623.86,467,620,541.78,602c77.45-18.6,117.2-45.18,146.06-95.87,36.31-63.79,28.56-145.48-84.35-168.28-47.48-9.6-95.5-14.51-143-25.63-43.3-10.13-88.36-29.67-134.89-31.15C264.58,279.11,222.1,302.54,194.63,334.15Z" transform="translate(-153.73 -240.42)"/></g></g></g></svg>