<svg xmlns="http://www.w3.org/2000/svg" viewBox="0 0 81.04 81.04"><defs><style>.cls-1,.cls-2{fill:#6bc6da;}.cls-2{opacity:0.2;}</style></defs><title>Recurso 16</title><g id="Capa_2" data-name="Capa 2"><g id="Layer_1" data-name="Layer 1"><path class="cls-1" d="M40.52,81A40.52,40.52,0,1,1,81,40.52,40.57,40.57,0,0,1,40.52,81Zm0-76.77A36.25,36.25,0,1,0,76.77,40.52,36.29,36.29,0,0,0,40.52,4.27Z"/><path class="cls-2" d="M32.06,41.21s-2.72-.75-2.72-3,2.93-2.87,4.12-2.32c1,.47,4.3,2.48,4.86,14.28,0,0,.59-12.11-4.49-14.63a4.11,4.11,0,0,0-3.23-.06A3.06,3.06,0,0,0,28.66,38a3.66,3.66,0,0,0,.46,1.81A3.43,3.43,0,0,0,32.06,41.21Z"/><path class="cls-2" d="M43.09,40.21l.42.21a35.43,35.43,0,0,0-1.58,9.75A33,33,0,0,1,43.09,40.21Z"/><path class="cls-2" d="M51.6,38a3.53,3.53,0,0,1-.47,1.81,3.4,3.4,0,0,1-2.93,1.41s2.72-.75,2.72-3S48,35.34,46.8,35.89a5.27,5.27,0,0,0-2.33,2.38L44,38a5.85,5.85,0,0,1,2.4-2.47,4.14,4.14,0,0,1,3.24-.06A3,3,0,0,1,51.6,38Z"/><path class="cls-2" d="M43,32.33s-.39-3.09-2.89-3.16c-2.17-.09-3,2.34-2.57,3.85A5.63,5.63,0,0,0,39,35.56l-.33.36a7.27,7.27,0,0,1-1.52-2.59,4.13,4.13,0,0,1,.24-3.23,3.17,3.17,0,0,1,4.77-.82C43.06,30,43.14,30.88,43,32.33Z"/><path class="cls-1" d="M50.65,51.94A1.6,1.6,0,0,1,49.77,49,17.55,17.55,0,1,0,30.5,49a1.6,1.6,0,0,1-1.76,2.67,20.74,20.74,0,1,1,22.78,0A1.56,1.56,0,0,1,50.65,51.94Z"/><path class="cls-1" d="M55,35.18A1.19,1.19,0,0,1,53.79,34a13.66,13.66,0,1,0-27.31,0,1.2,1.2,0,0,1-2.4,0,16.06,16.06,0,1,1,32.11,0A1.19,1.19,0,0,1,55,35.18Z"/><path class="cls-1" d="M51.53,34.5a.8.8,0,0,1-.8-.8,10.6,10.6,0,1,0-21.19,0,.8.8,0,0,1-1.6,0,12.2,12.2,0,0,1,24.39,0A.8.8,0,0,1,51.53,34.5Z"/><path class="cls-1" d="M49.17,35a4.22,4.22,0,0,0-.82-.08,4.75,4.75,0,0,0-3.71,1.68l0,0-.17.21-.06.07-.13.18-.09.12-.1.15,0,.06L44,37.5c-.07.11-.14.22-.2.33-.14-.08-.26-.17-.39-.26h0a8.51,8.51,0,0,1-.87-.69l-.07-.06c-.12-.11-.24-.22-.35-.34l0,0-.36-.38h0a13.39,13.39,0,0,0,1-1.51,5.43,5.43,0,0,0,.78-2.72,3.89,3.89,0,0,0-.36-1.66,3.24,3.24,0,0,0-3-1.85,3.32,3.32,0,0,0-3.36,3.51,6.84,6.84,0,0,0,1.8,4.23c-.15.17-.31.33-.48.49h0l-.3.28-.08.08-.27.23-.2.16-.26.2a5.52,5.52,0,0,1-.47.32,5.42,5.42,0,0,0-3.11-2.71,5.11,5.11,0,0,0-1.49-.22,3.36,3.36,0,0,0-3.57,3.31,3.25,3.25,0,0,0,.94,2.29,3.67,3.67,0,0,0,2.63,1,11.68,11.68,0,0,0,2.21-.21l.59-.12.42-.11.12,0c.92,3,1.23,7.58,1.31,12.35H39c-.07-5.08-.38-9.88-1.49-13.31h0c.25-.15.49-.31.72-.47l.06-.05c.18-.13.36-.26.53-.4L39,39l.1-.09a12.62,12.62,0,0,0,1.06-1h0l.54.53.15.13c.14.13.28.26.43.38l.17.15c.2.16.4.32.61.47h0c.25.18.5.35.77.51h0c-.08.25-.16.51-.23.78l-.09.36-.11.41-.15.71a.44.44,0,0,0,0,.1c-.06.27-.11.54-.16.82v0h0a68.55,68.55,0,0,0-.74,10.11h2.41a65.19,65.19,0,0,1,.76-10h0c0-.17.06-.34.1-.51a.68.68,0,0,1,0-.14c.13-.6.27-1.17.43-1.69.28.08.56.15.86.21a11.78,11.78,0,0,0,2.47.26A3.84,3.84,0,0,0,50,41.17a3.28,3.28,0,0,0,.65-.38c.13-.1.24-.2.34-.29a3.19,3.19,0,0,0,.6-.83A3.26,3.26,0,0,0,49.17,35Zm-15.38,4h-.07a9.35,9.35,0,0,1-1.81.17A1.29,1.29,0,0,1,31,38.8a.79.79,0,0,1-.24-.59.85.85,0,0,1,.62-.83,1.73,1.73,0,0,1,.55-.08,2.36,2.36,0,0,1,1.25.35l.07,0,.23.18.06,0a4,4,0,0,1,.76.9C34.12,38.86,34,38.89,33.79,38.93Zm6.34-4.77-.26-.39a1,1,0,0,1-.1-.17,1.4,1.4,0,0,1-.1-.16,3.11,3.11,0,0,1-.5-1.52h0v-.08c0-.26.07-1.12,1-1.12a1,1,0,0,1,1,1.12A3.88,3.88,0,0,1,40.13,34.16Zm9.16,4.64a1,1,0,0,1-.42.24,2,2,0,0,1-.51.07,9,9,0,0,1-2.37-.3c.08-.13.18-.26.27-.38l0,0a3.11,3.11,0,0,1,.29-.33h0a2.9,2.9,0,0,1,.68-.5h0a2.35,2.35,0,0,1,1.12-.28c.86,0,1.17.47,1.17.91A.83.83,0,0,1,49.29,38.8Z"/><path class="cls-1" d="M45.79,57.71H34.48a1.2,1.2,0,1,1,0-2.39H45.79a1.2,1.2,0,1,1,0,2.39Z"/><path class="cls-1" d="M46.92,61.75H33.35a1.2,1.2,0,1,1,0-2.39H46.92a1.2,1.2,0,1,1,0,2.39Z"/><path class="cls-1" d="M45.79,65.79H34.48a1.2,1.2,0,1,1,0-2.39H45.79a1.2,1.2,0,1,1,0,2.39Z"/><path class="cls-1" d="M42.4,70.23H37.87a1.6,1.6,0,0,1,0-3.19H42.4a1.6,1.6,0,0,1,0,3.19Z"/></g></g></svg>