<svg xmlns="http://www.w3.org/2000/svg" viewBox="0 0 151.03 202.25"><defs><style>.cls-1{fill:#f7e293;}</style></defs><title>Recurso 14</title><g id="Capa_2" data-name="Capa 2"><g id="Layer_1" data-name="Layer 1"><path class="cls-1" d="M108.05,69.84c.39,2.48,2.45,4.53,3.66,6.67.71,1.27,1.46,2.51,2.25,3.73.36.55.71,1.11,1.09,1.65,0-.08,1.28,2,1,.92,1.1,4.55,7.71,2.85,6.22-1.65a7.46,7.46,0,0,0-2-2.75,39.35,39.35,0,0,1-3-3.9c-.9-1.27-1.66-2.69-2.65-3.88a29.35,29.35,0,0,1-2.36-2.51c-1.29-2-4.54-.5-4.19,1.72Z"/><path class="cls-1" d="M115.79,27.57c-.23,2.35,1.81,4.89,3,6.82.82,1.39,1.81,2.67,2.71,4,.62.92,1.7,2,2.18,2.68,1.66,2.41,6.3.75,5.54-2.27-.42-1.63-1.15-2-2.34-3-.94-.8-1.84-2-2.71-2.95-1.86-2-4.08-3.82-5.8-5.9a1.44,1.44,0,0,0-2.54.66Z"/><path class="cls-1" d="M128.83,59.7l-.22.13a2.39,2.39,0,0,0-.94,2.26c.45,2,1.83,3.6,2.87,5.31s2.26,3.15,3.15,4.83a3.15,3.15,0,0,0,5.81-2.42c-.85-2.51-3.49-4.73-5-6.85-1.17-1.6-3.3-4.71-5.63-3.26Z"/><path class="cls-1" d="M119.79,104.13c-.72,2.55,1.73,5.38,2.93,7.48s2.16,4.54,4.18,6.24c2.7,2.29,6.24-2.28,3.36-4.33-1.6-1.14-2.36-3.06-3.45-4.64-1.28-1.84-2.67-3.8-4.09-5.52a1.67,1.67,0,0,0-2.93.77Z"/><path class="cls-1" d="M99.86,117.79c2,3.52,5.39,6.1,7.83,9.29a2.75,2.75,0,0,0,3.86.12,2.79,2.79,0,0,0,.12-3.86,44.49,44.49,0,0,0-4.29-4.17c-1.41-1.4-2.71-3.27-4.45-4.27s-4.2.93-3.07,2.89Z"/><path class="cls-1" d="M65.24,109.14c4,2.87,7.9,6,12,8.79s7.76-3.7,3.36-5.71c-1.23-.56-2.28-1.28-3.55-1.75a33.18,33.18,0,0,1-4.26-2c-2.11-1.15-4.64-3-7.12-2.22a1.71,1.71,0,0,0-.39,2.91Z"/><path class="cls-1" d="M54.51,74.84c.72,2,3,3.82,4.77,5s3.6,2.86,5.8,3.59c3.79,1.26,5.55-5,1.66-6S60,71.82,55.87,72.51a1.92,1.92,0,0,0-1.36,2.33Z"/><path class="cls-1" d="M30.55,47.39c-.45,0,.95.7,1.28.86,1,.53,2.12,1,3.2,1.41,2.3.93,4.4,2.2,6.65,3.22,3.32,1.5,5.56-4.05,2.19-5.13-3.08-1-6-2-9.19-2.72-1.86-.45-3.83-1.49-5.41.12-.92.93.2,2.31,1.28,2.24Z"/><path class="cls-1" d="M31.82,24.11c.67,1.66,3.61,2.61,5.13,3.27,1.22.53,2.49.93,3.74,1.39.06,0,2.65.86,1.06.14.57.26,1,.88,1.62,1.13,1.9.76,4.79-.81,4.19-3.15-1.1-4.25-6.15-3.48-9.65-4.25-.8-.18-7.21-1.29-6.09,1.47Z"/><path class="cls-1" d="M58.27,47.38a10.38,10.38,0,0,1,.93,1.52,22.76,22.76,0,0,0,2.87,3.4A34.89,34.89,0,0,0,68,57.67a2.59,2.59,0,0,0,3.19-4.09,42.68,42.68,0,0,0-3.73-2.8c-1.37-1-2.64-2.2-4-3.24s-3.34-3.14-5.14-1.9a1.12,1.12,0,0,0,0,1.74Z"/><path class="cls-1" d="M59.83,25a29.87,29.87,0,0,0,5.43,1.4c1.59.28,3,1,4.54,1.26a2.62,2.62,0,0,0,2.43-4.14c-1.56-1.94-3.94-1.73-6.18-1.39-2,.31-4.67.14-6.42,1.24a1,1,0,0,0,.2,1.63Z"/><path class="cls-1" d="M144.48,100.08c.14,2.55.25,5.08.5,7.67.29,3-.34,6.13,2.09,8.26a2.17,2.17,0,0,0,3-.38c1.92-2.79.47-6.54-.31-9.62-.56-2.21-.7-5.35-2.14-7.22a1.78,1.78,0,0,0-3.15,1.29Z"/><path class="cls-1" d="M142.6,140.13c-2-.36-2.45,2.4-2.53,3.79-.2,3.51-.33,7-.88,10.46-.59,3.68,5.53,4.34,5.58.81a50.8,50.8,0,0,0-.77-9.29c-.24-1.36-1.18-3.69-.85-5a.67.67,0,0,0-.55-.74Z"/><path class="cls-1" d="M122.64,147.66a45.59,45.59,0,0,0-1.46,8c-.18,2.11-.58,4.77-.15,6.84a2.88,2.88,0,0,0,5.07,1.39c1.76-2.24.61-5.1.43-7.68s.11-6.46-1.22-8.87a1.41,1.41,0,0,0-2.67.34Z"/><path class="cls-1" d="M103.33,162.32c-1.41,5.19.65,10.71,0,16-.68,5.67,8.66,4.53,6.59-.83C108,172.52,108.66,166.67,106,162a1.41,1.41,0,0,0-2.67.33Z"/><path class="cls-1" d="M50.2,93.8a3.42,3.42,0,0,0-1.42-2.13c-1.17-1.07-2.28-2.19-3.49-3.21A40,40,0,0,0,39,84.34c-2.55-1.48-4.85,2.2-3.32,4.27a4.27,4.27,0,0,0,2.61,1.55A19,19,0,0,1,42,92.07c2,1.2,4.26,3.08,6.63,3.26A1.39,1.39,0,0,0,50.2,93.8Z"/><path class="cls-1" d="M32,70.29c-1.35-1.35-3.15-1.62-5-2a33.33,33.33,0,0,0-8.29-.24c-4,.27-3.12,7,.77,6.14A49.25,49.25,0,0,1,27.43,73c1.42-.07,3.69-.06,4.56-1.43a1.08,1.08,0,0,0,0-1.28Z"/><path class="cls-1" d="M13.2,38.66c-2.06-.41-4.39,1.17-6.3,1.86a19.54,19.54,0,0,0-5.53,2.73c-4.21,3.35,2.38,9,4.89,4.91a9.33,9.33,0,0,1,3.32-3c.78-.5,1.58-1,2.35-1.5s1.34-1.32,2.09-1.88a1.76,1.76,0,0,0-.82-3.11Z"/><path class="cls-1" d="M54.38,4.8a22.24,22.24,0,0,0,5,2.49c2.12.65,4.3,1.14,6.44,1.7,4.49,1.2,5.82-6.47,1.06-7.28-2.15-.37-4.27-.58-6.42-.89C58.56.55,56.89-.54,55,.34c-1.61.73-2.37,3.37-.6,4.46Z"/><path class="cls-1" d="M87.91,13.85c1.41,1,2.62,2.26,4.1,3.19s3.32,1.62,4.54,2.75c3.27,3,7.89-2.72,4.29-5.51a11.94,11.94,0,0,0-2.79-1.45c-1.13-.47-2.16-1.15-3.29-1.6-2.15-.84-4.06-1.83-6.37-1a2.11,2.11,0,0,0-.48,3.59Z"/><path class="cls-1" d="M83.72,77.56a22.7,22.7,0,0,0,4.7,7c1.65,1.7,3.42,4.16,5.57,5.25,3.15,1.58,5.33-3.51,2.15-5-.44-.22-1-1.12-1.35-1.5-1.11-1.12-2.29-2.16-3.4-3.28-1.62-1.64-2.81-4.16-5-5a2,2,0,0,0-2.63,2.6Z"/><path class="cls-1" d="M85.11,43.05a10.39,10.39,0,0,1,2.09,1.79,25.29,25.29,0,0,0,2.56,1.64c1.87,1.18,3.32,2.92,5.16,4.1a2.75,2.75,0,0,0,3.37-4.33A23.84,23.84,0,0,0,91,42c-1.83-.74-4.34-2.38-6.18-1.14a1.3,1.3,0,0,0,.28,2.22Z"/><path class="cls-1" d="M93.07,134.81a11.69,11.69,0,0,0,.9,4.81c.61,1.64.8,3.38,1.32,5,1,3.2,6.36,1.06,4.84-2-.64-1.29-1-2.7-1.66-4s-1.78-2.46-2.13-3.83c-.41-1.63-3.15-2.07-3.27,0Z"/><path class="cls-1" d="M125.25,185.77c-2.91.74-3.66,4.09-4.55,6.63-.32.91-.59,1.85-.94,2.75.06-.16-.5,1.12-.32.8.35-.63-.93,1.26-1,1.47a3.5,3.5,0,0,0,2.68,4.77l.21,0a3.59,3.59,0,0,0,3.37-1.36c1.15-1.77,1.23-3.52,1.31-5.56a34.85,34.85,0,0,1,1.31-7.44,1.85,1.85,0,0,0-2-2.09Z"/><path class="cls-1" d="M24,11.2c-2.46.18-5.21,1.55-7.4,2.67-2.38,1.22-4.78,3.23-3.81,6.15a2.69,2.69,0,0,0,3.44,1.42c1.09-.35,1.41-1.09,2.15-1.86a13.87,13.87,0,0,1,1.87-1.44l2.32-1.64a29.87,29.87,0,0,0,2.64-2.35,1.67,1.67,0,0,0-1.21-3Z"/></g></g></svg>