<svg xmlns="http://www.w3.org/2000/svg" viewBox="0 0 169.54 126.89"><defs><style>.cls-1{fill:#f6b6b6;}</style></defs><title>Recurso 13</title><g id="Capa_2" data-name="Capa 2"><g id="Layer_1" data-name="Layer 1"><path class="cls-1" d="M164.69,88.18a16.92,16.92,0,0,0,3-5.19c4-10.7,1.85-21.55-9.89-25.49-7.56-2.54-15.53-3.89-21.93,1.9-5.16,4.66-9.6,15.87-8.71,23.48s6,8.45,13.06,9.81C149.12,94.42,159,94.74,164.69,88.18Z"/><path class="cls-1" d="M89.07,70.52c5.57-9.28-.81-22.22-11.45-24-8.13-1.36-11.77-1.44-15.11,7.27-2.24,5.86-4.17,13.06-.83,18.26,4.42,6.89,19.09,7,24.73,1.73A15.52,15.52,0,0,0,89.07,70.52Z"/><path class="cls-1" d="M159.91,11.55C166,4.67,156.69.64,151.28.18c-7.45-.63-14.1,0-15.59,9.06C132.78,27,150.75,16.91,159.91,11.55Z"/><path class="cls-1" d="M21.2,60.58c2.05-7.75,3.06-10.32-4-14.65-6-3.64-10.56-.68-14.79,4.81C-6.6,62.42,11.85,68.05,21.2,60.58Z"/><path class="cls-1" d="M73.32,126.17c3.77-5.37,5.4-12.31-1.53-14.74-3.36-1.18-7.39-1.16-10,1.62-4.44,4.7,4.77,16.06,9.53,13.45"/></g></g></svg>