<svg xmlns="http://www.w3.org/2000/svg" viewBox="0 0 115.92 86.75"><defs><style>.cls-1{fill:#6bc6da;}</style></defs><title>Recurso 5</title><g id="Capa_2" data-name="Capa 2"><g id="Layer_1" data-name="Layer 1"><path class="cls-1" d="M112.6,60.29a11.72,11.72,0,0,0,2.06-3.55c2.73-7.31,1.26-14.73-6.76-17.43-5.17-1.73-10.62-2.66-15,1.3-3.52,3.19-6.56,10.85-6,16.06s4.13,5.77,8.92,6.7C102,64.56,108.72,64.77,112.6,60.29Z"/><path class="cls-1" d="M60.9,48.22c3.81-6.35-.56-15.19-7.83-16.41-5.56-.92-8-1-10.33,5-1.53,4-2.85,8.92-.57,12.48,3,4.71,13.06,4.8,16.91,1.18A10.48,10.48,0,0,0,60.9,48.22Z"/><path class="cls-1" d="M109.33,7.9c4.17-4.71-2.2-7.46-5.9-7.78-5.09-.43-9.64,0-10.66,6.2C90.78,18.43,103.07,11.56,109.33,7.9Z"/><path class="cls-1" d="M14.49,41.42c1.4-5.3,2.1-7.06-2.72-10-4.07-2.5-7.22-.47-10.12,3.28C-4.51,42.68,8.1,46.53,14.49,41.42Z"/><path class="cls-1" d="M50.13,86.26c2.58-3.67,3.69-8.41-1.05-10.08-2.29-.8-5-.79-6.85,1.12-3,3.21,3.26,11,6.52,9.19"/></g></g></svg>