<svg xmlns="http://www.w3.org/2000/svg" viewBox="0 0 553.47 375.93"><defs><style>.cls-1{fill:#7875ea;}.cls-2{fill:#fff0e4;}</style></defs><title>Recurso 5</title><g id="Capa_2" data-name="Capa 2"><g id="Layer_1" data-name="Layer 1"><path class="cls-1" d="M422.11,94.66,387.05,71.11C348.94,54.2,356.71-2.68,304.86.1,251.92,2.94,181,67.59,165.25,116c-7.86,24.07-14.14,62.87,5.27,83.93,13.5,14.64,35.21,12.2,53.37,8.6,22.4-4.43,40.36-16.38,63.32-10.2,14.8,4,24.19,12.95,37.14,20.68C395.61,261.49,473,149.79,422.11,94.66Z"/><path class="cls-2" d="M40.9,93.73A171.7,171.7,0,0,0,4.3,165.34c-17.41,72,17,154.35,122.93,191.64,75.15,26.46,186,22.55,260.82,4.57,77.45-18.6,117.2-45.18,146.06-95.87,36.31-63.79,28.56-145.48-84.35-168.29-47.49-9.59-95.5-14.51-143-25.62-43.3-10.13-88.36-29.68-134.89-31.15C110.85,38.69,68.37,62.12,40.9,93.73Z"/></g></g></svg>