<svg xmlns="http://www.w3.org/2000/svg" viewBox="0 0 160.91 118.17"><defs><style>.cls-1{fill:none;stroke:#0bb3e4;stroke-miterlimit:10;stroke-width:3.05px;}</style></defs><title>Recurso 15</title><g id="Capa_2" data-name="Capa 2"><g id="Layer_1" data-name="Layer 1"><path class="cls-1" d="M18.1,6C21.31,1.84,27.78.83,32.8,2c9.71,2.17,9.05,8.51,14,14.77,9.94,12.5,27.43,1,36.7,12.56,3.4,4.25,1.6,10.3,5.16,14.35,6,6.87,16.86,6.37,24.86,7.34,10.14,1.24,16.41,5.39,21,14.34,4.7,9.25,15.42,16,26.09,18.39"/><path class="cls-1" d="M12.47,17c3.2-4.2,9.68-5.21,14.7-4.09,9.71,2.17,9,8.52,14,14.77,9.94,12.5,27.43,1,36.7,12.56,3.4,4.25,1.6,10.3,5.16,14.35,6,6.87,16.86,6.37,24.86,7.34,10.14,1.24,16.41,5.39,21,14.34,4.7,9.25,15.42,16,26.09,18.4"/><path class="cls-1" d="M6.84,28c3.2-4.2,9.68-5.2,14.69-4.09,9.72,2.17,9.06,8.52,14,14.77,9.94,12.51,27.43,1,36.7,12.56,3.4,4.26,1.6,10.3,5.16,14.36,6,6.86,16.86,6.36,24.85,7.34,10.15,1.23,16.42,5.38,21,14.34,4.7,9.24,15.42,16,26.09,18.39"/><path class="cls-1" d="M1.21,39c3.2-4.2,9.68-5.2,14.69-4.08,9.71,2.16,9.06,8.51,14,14.76,9.94,12.51,27.43,1,36.7,12.57,3.4,4.25,1.6,10.29,5.16,14.35,6,6.86,16.86,6.37,24.85,7.34,10.15,1.23,16.42,5.38,21,14.34,4.7,9.25,15.42,16,26.09,18.39"/></g></g></svg>