<svg xmlns="http://www.w3.org/2000/svg" viewBox="0 0 350.93 246.21"><defs><style>.cls-1{fill:#f6a0af;}.cls-2{fill:#c9f5e5;}</style></defs><title>Recurso 9</title><g id="Capa_2" data-name="Capa 2"><g id="Layer_1" data-name="Layer 1"><path class="cls-1" d="M306.61,102l-37.8-25.39C227.73,58.43,236.11-2.89,180.22.11,123.15,3.17,46.73,72.86,29.72,125c-8.47,26-15.24,67.77,5.68,90.47,14.55,15.79,37.95,13.16,57.53,9.28,24.15-4.79,43.51-17.66,68.26-11,16,4.3,26.07,14,40,22.29C278,281.88,361.47,161.47,306.61,102Z"/><path class="cls-2" d="M25.93,50.21A108.94,108.94,0,0,0,2.72,95.62c-11,45.64,10.78,97.86,78,121.5,47.65,16.78,117.93,14.3,165.38,2.9,49.1-11.79,74.3-28.65,92.6-60.79,23-40.44,18.11-92.24-53.48-106.7-30.11-6.08-60.55-9.2-90.69-16.25C167,29.86,138.45,17.47,109,16.53,70.28,15.31,43.35,30.16,25.93,50.21Z"/></g></g></svg>