<?xml version="1.0" encoding="UTF-8"?>
<svg width="280px" height="96px" viewBox="0 0 280 96" version="1.1" xmlns="http://www.w3.org/2000/svg" xmlns:xlink="http://www.w3.org/1999/xlink">
    <!-- Generator: Sketch 52.5 (67469) - http://www.bohemiancoding.com/sketch -->
    <title>Logo</title>
    <desc>Created with Sketch.</desc>
    <g id="Propuestas" stroke="none" stroke-width="1" fill="none" fill-rule="evenodd">
        <g id="Home-1-1" transform="translate(-501.000000, -171.000000)">
            <g id="Logo-Fonasa-Grande" transform="translate(442.000000, 171.000000)">
                <g id="Logo" transform="translate(59.000000, 0.000000)">
                    <path d="M47.40937,52.0648243 C31.3014071,24.4598706 -5.07552597,52.2403365 8.3030241,89.6821516 C-22.0246408,45.0130781 39.4521114,2.03950109 53.3417045,43.4695318 C54.0264638,45.5102827 48.3145226,53.6175067 47.40937,52.0648243" id="Fill-1" fill="#00ADEE"></path>
                    <path d="M23.5745727,11.8895967 C22.1135348,19.0474168 26.1616092,25.3499571 32.6115919,25.9657968 C39.0653818,26.5830732 45.4796714,21.2813922 46.9388057,14.1245299 C48.3998436,6.96718867 44.3531969,0.666085002 37.9013106,0.0488086201 C31.4479965,-0.567988882 25.033707,4.73273437 23.5745727,11.8895967" id="Fill-3" fill="#00ADEE"></path>
                    <path d="M54.7988371,30.4057502 C52.7945094,23.9571253 55.1446129,17.5312615 60.0426154,16.0517971 C64.9415946,14.5723326 70.5350558,18.599091 72.5369415,25.0467473 C74.5393156,31.4944036 72.1911657,37.9207517 67.2931632,39.4007004 C62.3927188,40.8796806 56.8012112,36.8529222 54.7988371,30.4057502" id="Fill-5" fill="#A5CD38"></path>
                    <path d="M20.8629645,52.4887979 C17.5152723,50.4601986 16.8015412,45.7022197 19.2668467,41.8557784 C21.7321521,38.0107644 26.4481548,36.5359385 29.7963358,38.5612075 C33.1454945,40.5874281 33.8587367,45.3496887 31.3924536,49.1927997 C28.9251928,53.0387653 24.2106567,54.5173972 20.8629645,52.4887979" id="Fill-7" fill="#006BB7"></path>
                    <path d="M13.0376194,60.6222693 C19.0405858,52.8747174 31.0359534,51.9901964 41.0757946,58.0830254 C32.1553865,55.817954 22.6711799,58.5340052 16.997176,65.8615791 C13.3315246,70.5932339 11.8994569,76.4181877 12.5160816,82.1515892 C8.56853093,74.830797 8.47728584,66.51068 13.0376194,60.6222693" id="Fill-9" fill="#006BB7"></path>
                    <path d="M83.4488566,62.0224897 C83.4929671,51.3362323 74.7973854,43.7443251 64.0310346,45.0658198 C53.2646839,46.3853691 44.5017246,56.1173488 44.4590683,66.804579 C44.4168967,77.4918092 53.1129632,85.0807981 63.8788292,83.7612489 C74.6471189,82.4407269 83.408624,72.7077744 83.4488566,62.0224897 M64.6035014,84.7140675 C51.9389458,86.2695111 41.710646,77.336654 41.7605732,64.7681055 C41.8105005,52.1990706 52.1182961,40.7501691 64.7833365,39.1976438 C77.4503158,37.6436593 87.6747378,46.5740846 87.6282036,59.145065 C87.5763375,71.7131271 77.2685418,83.1620286 64.6035014,84.7140675" id="Fill-11" fill="#A5CD38"></path>
                    <path d="M46.5525672,61.6136919 C46.5525672,61.6136919 55.0416041,72.0141303 72.8361364,69.8274182 C72.8361364,69.8274182 86.1106075,67.1958779 90.3667482,74.1816481 C90.3667482,74.1816481 74.0879424,80.0992547 59.9001613,73.7008305 C54.8396687,71.7852381 50.3888565,67.7544324 46.5525672,61.6136919" id="Fill-13" fill="#00ADEE"></path>
                    <path d="M60.6239761,58.2330138 C58.1470573,55.5984973 53.8208728,54.6734957 50.9651482,56.165278 C48.1089422,57.6531981 47.8047423,60.994018 50.2816611,63.6285345 C52.7624305,66.2601544 57.0847644,67.1832248 59.9385637,65.6943392 C62.7942883,64.2073847 63.1008948,60.8655992 60.6239761,58.2330138" id="Fill-15" fill="#00ADEE"></path>
                    <path d="M106.1131,45.1910601 L125.96577,45.1910601 L125.954247,45.3713781 L125.503868,47.1247647 C125.104385,47.9330531 124.487875,48.4817418 123.785419,48.8452782 L111.786046,48.8452782 C106.515944,48.6025983 105.576775,52.7455602 105.576775,52.7455602 L102.708372,64.139914 L119.994652,64.139914 L119.375742,66.4506909 C118.877349,67.2850844 118.129278,67.7999332 117.307746,68.1035248 L101.719748,68.1035248 L96.2446231,90.3667482 L93.5634779,90.3667482 C91.7480392,89.8306286 91.1733023,88.6936103 91.0513447,87.7050039 L100.569794,49.606191 C101.375482,44.799485 106.1131,45.1910601 106.1131,45.1910601" id="Fill-17" fill="#006BB7"></path>
                    <path d="M161.892551,81.4470425 L156.08802,81.4470425 L160.713725,62.4736 C161.492021,59.5433255 162.154566,56.2509421 162.508601,54.0831296 L167.782321,54.0831296 L166.734745,59.9761134 L166.87326,59.9761134 C169.989835,56.2896703 174.592778,54.2273922 179.621434,54.2273922 C183.660632,54.2273922 188.264059,56.0166363 188.264059,61.494744 C188.264059,62.6890257 187.978796,64.3722513 187.626698,65.726771 L183.724077,81.4668907 C179.760917,81.4818979 178.772427,79.8378846 178.624227,78.4920787 L181.748067,65.8923342 C181.960197,64.9149306 182.173781,63.6664293 182.173781,62.5273354 C182.173781,59.922378 180.825444,57.9719277 176.790605,57.9719277 C172.610955,57.9719277 166.661613,61.8229657 165.103084,68.329792 L161.892551,81.4470425 Z" id="Fill-19" fill="#006BB7"></path>
                    <path d="M221.809291,79.6804901 C223.353309,80.6000632 226.585032,81.4124172 230.241083,81.4669927 C237.479661,81.4669927 243.240537,78.3817863 243.240537,72.8643477 C243.240537,69.8863604 240.711865,67.613025 236.91453,65.9337416 C233.824091,64.6360037 232.207989,63.4474168 232.207989,61.5532121 C232.207989,59.3325204 234.737623,57.6015592 238.322552,57.6015592 C240.851225,57.6015592 242.957011,58.2497037 244.153589,58.7930439 L245.770171,55.3856972 C244.504874,54.73224 241.764757,54.0831296 238.741114,54.0831296 C231.506381,54.0831296 226.376472,57.6015592 226.376472,62.2003907 C226.376472,64.9064664 228.553379,67.1807677 232.488152,68.8571533 C236.073562,70.3731932 237.266296,71.672863 237.266296,73.7283793 C237.266296,76.0562902 234.737623,78.0031385 230.802851,78.0031385 C227.991612,78.0031385 225.041014,77.1352431 223.496995,76.3808454 L221.809291,79.6804901 Z" id="Fill-21" fill="#006BB7"></path>
                    <path d="M215.294363,65.9360915 C213.666539,72.9157237 207.858002,77.7871215 202.899944,77.7871215 C198.438806,77.7871215 197.09286,74.9196331 197.09286,71.9961182 C197.09286,64.6909534 204.386829,57.6552948 213.2413,57.6552948 C215.223167,57.6552948 216.428657,57.8185441 217.278167,58.0339559 L215.294363,65.9360915 Z M213.120218,78.1561229 C213.589531,76.2739261 214.059328,75.6494251 214.302461,74.1072504 L214.161521,74.1072504 C210.409922,79.5727212 205.661578,81.4669927 200.846881,81.4669927 C194.756466,81.4669927 191.002445,77.7871215 191.002445,72.8085008 C191.002445,63.66171 199.78572,54.0831296 214.656988,54.0831296 C217.915542,54.0831296 221.526686,54.5154021 223.863081,55.0568296 L220.394329,68.7480366 C219.292969,73.1620466 217.885029,78.1860681 217.925229,81.2399892 C214.107761,81.1747861 213.221927,79.4853007 213.120218,78.1561229 Z" id="Fill-23" fill="#006BB7"></path>
                    <path d="M271.432861,65.9337416 C269.804093,72.9179572 263.994673,77.7882173 259.038625,77.7882173 C254.5761,77.7882173 253.230174,74.9188981 253.230174,71.9954863 C253.230174,64.6896132 260.524519,57.6561347 269.376438,57.6561347 C271.360213,57.6561347 272.564233,57.8164805 273.412762,58.0338165 L271.432861,65.9337416 Z M269.266013,78.2996815 C269.736288,76.4175511 270.198329,75.6486643 270.439037,74.108476 L270.298099,74.108476 C266.542681,79.572788 261.798281,81.4669927 256.985592,81.4669927 C250.891877,81.4669927 247.139364,77.7882173 247.139364,72.8083232 C247.139364,63.662338 255.922994,54.0831296 270.793559,54.0831296 C274.052065,54.0831296 277.665577,54.5168358 280,55.0592101 L276.530815,68.7494512 C275.431408,73.1633055 274.03366,78.3296256 274.073375,81.382956 C270.254026,81.3182382 269.368205,79.6283294 269.266013,78.2996815 Z" id="Fill-25" fill="#006BB7"></path>
                    <path d="M137.138321,77.8954994 C132.288831,77.8954994 129.200127,74.8108304 129.200127,70.5361466 C129.200127,64.5281174 134.045294,57.6565547 141.35268,57.6565547 C147.462826,57.6565547 149.291354,61.9293066 149.291354,64.9603671 C149.291354,71.0775454 144.091148,77.8954994 137.207504,77.8954994 L137.138321,77.8954994 Z M136.574773,81.4669927 C147.958153,81.4669927 155.403423,73.0789339 155.403423,64.9603671 C155.403423,59.4420598 151.257286,54.0831296 142.054112,54.0831296 C131.026253,54.0831296 123.227384,62.0389387 123.227384,70.6974554 C123.227384,76.5958526 128.003368,81.4669927 136.506071,81.4669927 L136.574773,81.4669927 Z" id="Fill-27" fill="#006BB7"></path>
                    <polygon id="Clip-30" points="0 95.8435208 280 95.8435208 280 0 0 0"></polygon>
                    <polygon id="Fill-29" fill="#006BB7" points="125.281174 95.8435208 191.687042 95.8435208 191.687042 89.6821516 125.281174 89.6821516"></polygon>
                    <polygon id="Fill-31" fill="#EE4144" points="191.687042 95.8435208 273.154034 95.8435208 273.154034 89.6821516 191.687042 89.6821516"></polygon>
                </g>
            </g>
        </g>
    </g>
</svg>