<?xml version="1.0" encoding="UTF-8"?>
<svg width="219px" height="64px" viewBox="0 0 219 64" version="1.1" xmlns="http://www.w3.org/2000/svg" xmlns:xlink="http://www.w3.org/1999/xlink">
    <!-- Generator: Sketch 53.2 (72643) - https://sketchapp.com -->
    <title>Group 7</title>
    <desc>Created with Sketch.</desc>
    <defs>
        <polygon id="path-1" points="0 0.216117514 28.3944865 0.216117514 28.3944865 26.6376316 0 26.6376316"></polygon>
    </defs>
    <g id="Symbols" stroke="none" stroke-width="1" fill="none" fill-rule="evenodd">
        <g id="header" transform="translate(-149.000000, -29.000000)">
            <g id="Group-5">
                <g id="Group-7" transform="translate(149.000000, 29.000000)">
                    <g id="Group-6">
                        <polygon id="Fill-1" fill="#8CC733" points="134.216694 63.5910508 143.930264 63.5910508 143.930264 0.0853333333 134.216694 0.0853333333"></polygon>
                        <polygon id="Fill-2" fill="#1B753B" points="153.807633 63.3451751 218.652558 63.3451751 218.652558 7.46069873e-14 153.807633 7.46069873e-14"></polygon>
                        <g id="Group-21" transform="translate(-0.000000, 36.593175)">
                            <path d="M185.529259,21.1935096 L182.317861,21.2293062 C179.810726,21.2293062 177.712006,20.330052 175.995002,18.5355209 C174.333561,16.7409898 173.515287,14.5751141 173.487867,11.990165 C173.487867,9.40232316 174.30578,7.21149831 175.995002,5.41515932 C177.657887,3.62135141 179.757689,2.72426667 182.317861,2.72426667 L185.458544,2.7195661 L185.46107,7.15943051 L183.189892,7.15943051 C181.773067,7.15943051 180.628278,7.55427797 179.757689,8.39712542 C178.885658,9.19043616 178.449462,10.3789559 178.449462,11.990165 C178.449462,13.5464136 178.885658,14.7338486 179.757689,15.5792271 C180.628278,16.3714531 181.773067,16.7666621 183.189892,16.7934192 L185.505447,16.7898034 L185.529259,21.1935096 Z" id="Fill-4" fill="#FFFFFF"></path>
                            <path d="M163.808176,13.4025401 L163.808897,9.12177175 C163.835596,8.38197514 163.999756,7.82911638 164.326632,7.43209944 C164.680568,7.01013333 165.144184,6.82536497 165.74454,6.82536497 C166.343813,6.82536497 166.807069,7.03725198 167.133584,7.45921808 C167.514579,7.88009944 167.6791,8.4347661 167.6791,9.12177175 L167.721673,13.4090486 L163.808176,13.4025401 Z M170.595011,4.25560226 C169.341624,3.01465311 167.73394,2.4068339 165.744179,2.4068339 C163.726998,2.43250621 162.120036,3.03996384 160.892625,4.25560226 C159.666298,5.47015593 159.066302,7.07847232 159.066302,9.08669831 L159.066302,21.2289808 L163.808897,21.2289808 L163.807815,17.3246192 L167.683069,17.3246192 L167.679461,21.2289808 L172.447671,21.2289808 L172.447671,9.08669831 C172.420973,7.07847232 171.8217,5.47015593 170.595011,4.25560226 L170.595011,4.25560226 Z" id="Fill-6" fill="#FFFFFF"></path>
                            <path d="M213.391904,15.685026 C213.391904,17.269478 212.956791,18.5885288 212.056978,19.644348 C211.183865,20.7008904 209.386766,21.2288 206.660992,21.2288 L201.564461,21.2288 L201.564461,16.9509243 L206.497553,16.9509243 C207.668319,16.9509243 208.240534,16.6349017 208.267954,15.9486192 C208.267954,15.473139 207.532301,14.7333424 206.006156,13.6775232 C204.532687,12.6488226 203.417483,11.7777718 202.599209,11.0123028 C201.836137,10.273591 201.455142,9.27128588 201.426639,7.95187345 C201.426639,6.15625763 201.973237,4.83539887 203.063547,3.98965876 C204.152774,3.14572655 205.514399,2.72376045 207.205786,2.72376045 L212.165576,2.72376045 L212.165576,6.99946667 L207.368142,6.99946667 C207.041987,6.99946667 206.795927,7.05298079 206.579092,7.18459661 C206.388234,7.28945537 206.306334,7.47567006 206.278914,7.76602034 C206.278914,8.16195254 207.014567,8.8467887 208.513652,9.85054011 C209.984957,10.8015006 211.159331,11.6989469 212.056978,12.5428791 C212.929371,13.3615006 213.364484,14.3905627 213.391904,15.685026" id="Fill-8" fill="#FFFFFF"></path>
                            <g id="Group-12">
                                <mask id="mask-2" fill="white">
                                    <use xlink:href="#path-1"></use>
                                </mask>
                                <g id="Clip-11"></g>
                                <polygon id="Fill-10" fill="#6A6B69" mask="url(#mask-2)" points="8.1602575 0.216117514 14.3265326 18.385609 14.4004947 18.385609 20.2344815 0.216117514 28.3944865 0.216117514 28.3944865 26.6376316 22.9667501 26.6376316 22.9667501 7.91311186 22.892788 7.91311186 16.4310252 26.6376316 11.963353 26.6376316 5.50159028 8.09824181 5.42798896 8.09824181 5.42798896 26.6376316 -0.000108237232 26.6376316 -0.000108237232 0.216117514"></polygon>
                            </g>
                            <path d="M47.6687595,26.637704 L47.6687595,23.9735684 L47.5579967,23.9735684 C46.8934201,25.0832633 46.0311301,25.8856136 44.9732916,26.3784497 C43.9147315,26.8716475 42.8316376,27.1186079 41.7240099,27.1186079 C40.3208946,27.1186079 39.169972,26.933478 38.271603,26.5635797 C37.3725124,26.1933198 36.6653624,25.6697492 36.1483493,24.9906983 C35.6313361,24.3127322 35.2680198,23.4865175 35.0591219,22.5116927 C34.8498633,21.537591 34.7452339,20.4579073 34.7452339,19.2737266 L34.7452339,7.50604294 L39.9886063,7.50604294 L39.9886063,18.3115571 C39.9886063,19.8905853 40.2343048,21.0686192 40.727145,21.8456588 C41.2192636,22.6226983 42.0930988,23.0113989 43.3486507,23.0113989 C44.775939,23.0113989 45.8099654,22.5858169 46.450369,21.7342915 C47.0900511,20.8834893 47.4104333,19.4838056 47.4104333,17.5345175 L47.4104333,7.50604294 L52.6534448,7.50604294 L52.6534448,26.637704 L47.6687595,26.637704 Z" id="Fill-13" fill="#6A6B69"></path>
                            <path d="M63.4348834,7.50600678 L63.4348834,10.170504 L63.5456461,10.170504 C64.2102227,9.06044746 65.0717911,8.25231186 66.1303512,7.74682034 C67.1881898,7.2416904 68.2720053,6.98785989 69.3796329,6.98785989 C70.7827483,6.98785989 71.9329493,7.17949831 72.8320399,7.5616904 C73.7304089,7.94460565 74.4382804,8.47468475 74.9552936,9.15301243 C75.471946,9.83170169 75.8349015,10.6579164 76.0445209,11.6320181 C76.253058,12.6068429 76.3580481,13.686165 76.3580481,14.8699842 L76.3580481,26.6376678 L71.1150366,26.6376678 L71.1150366,15.8321537 C71.1150366,14.2538486 70.8686165,13.0754531 70.3764979,12.2984136 C69.8840185,11.5210124 69.010544,11.1326734 67.7549921,11.1326734 C66.3269822,11.1326734 65.2929558,11.5582554 64.6532738,12.4094192 C64.0128702,13.2605831 63.6932096,14.6606282 63.6932096,16.6095548 L63.6932096,26.6376678 L58.450198,26.6376678 L58.450198,7.50600678 L63.4348834,7.50600678 Z" id="Fill-15" fill="#6A6B69"></path>
                            <path d="M95.4841082,14.7404655 C95.3369056,14.0133243 95.0839913,13.3715164 94.7271692,12.8164881 C94.3699863,12.2614599 93.9085349,11.8112904 93.3424542,11.4656181 C92.7760127,11.1203073 92.0623685,10.9478328 91.201161,10.9478328 C90.3392318,10.9478328 89.6136815,11.1203073 89.0230671,11.4656181 C88.431731,11.8112904 87.9576519,12.2676068 87.6008298,12.8345672 C87.243647,13.4026124 86.9856815,14.0502056 86.8258512,14.7777085 C86.6652993,15.5055729 86.5855646,16.2641718 86.5855646,17.0531435 C86.5855646,17.7933017 86.6714328,18.5334599 86.8442516,19.2736181 C87.015988,20.0137763 87.2930753,20.6740249 87.6747919,21.2536407 C88.0561478,21.8332565 88.5359995,22.3022282 89.1154295,22.6594712 C89.6930555,23.0177989 90.3886601,23.1964203 91.201161,23.1964203 C92.0623685,23.1964203 92.7825069,23.0239458 93.3608545,22.6782734 C93.9395629,22.3329627 94.4010143,21.8704994 94.7455695,21.290522 C95.0901247,20.7112678 95.3369056,20.0510192 95.4841082,19.310861 C95.6320325,18.5707028 95.7059946,17.8063186 95.7059946,17.0166237 C95.7059946,16.2269288 95.6320325,15.4686915 95.4841082,14.7404655 L95.4841082,14.7404655 Z M95.7059946,24.1951096 C95.0901247,25.231765 94.2841181,25.9780701 93.287614,26.4343864 C92.2903883,26.8907028 91.1643603,27.1184994 89.9088084,27.1184994 C88.4811593,27.1184994 87.2252466,26.8411661 86.1421527,26.2861379 C85.0590588,25.7311096 84.167184,24.9786576 83.4650852,24.0287819 C82.7640687,23.0792678 82.2340671,21.987652 81.8776058,20.7539345 C81.5207837,19.5205785 81.342553,18.2376859 81.342553,16.9052565 C81.342553,15.6227254 81.5207837,14.3835842 81.8776058,13.1863864 C82.2340671,11.9902734 82.7640687,10.935539 83.4650852,10.0225446 C84.167184,9.11027345 85.0471527,8.37553898 86.1057129,7.82051073 C87.1639122,7.26548249 88.3952911,6.98814915 89.7980456,6.98814915 C90.9298463,6.98814915 92.0071675,7.22860113 93.028927,7.70986667 C94.0499649,8.19077062 94.8570539,8.90019435 95.4473076,9.83741469 L95.5216305,9.83741469 L95.5216305,0.216081356 L100.764281,0.216081356 L100.764281,26.6375955 L95.7799567,26.6375955 L95.7799567,24.1951096 L95.7059946,24.1951096 Z" id="Fill-17" fill="#6A6B69"></path>
                            <path d="M111.398012,19.3290847 C111.545936,20.0573107 111.797768,20.7110508 112.155312,21.2906667 C112.511773,21.8702825 112.985852,22.3331073 113.576467,22.6784181 C114.167442,23.0240904 114.905981,23.1962034 115.792083,23.1962034 C116.678546,23.1962034 117.422496,23.0240904 118.026099,22.6784181 C118.628981,22.3331073 119.108832,21.8702825 119.466015,21.2906667 C119.822837,20.7110508 120.075391,20.0573107 120.222954,19.3290847 C120.370518,18.6015819 120.44448,17.8552768 120.44448,17.0905311 C120.44448,16.3257853 120.370518,15.5729718 120.222954,14.8328136 C120.075391,14.0930169 119.822837,13.4396384 119.466015,12.8719548 C119.108832,12.3046328 118.628981,11.8421695 118.026099,11.4842034 C117.422496,11.1265989 116.678546,10.9476158 115.792083,10.9476158 C114.905981,10.9476158 114.167442,11.1265989 113.576467,11.4842034 C112.985852,11.8421695 112.511773,12.3046328 112.155312,12.8719548 C111.797768,13.4396384 111.545936,14.0930169 111.398012,14.8328136 C111.250449,15.5729718 111.176847,16.3257853 111.176847,17.0905311 C111.176847,17.8552768 111.250449,18.6015819 111.398012,19.3290847 M106.634852,12.9272768 C107.102437,11.6819887 107.767014,10.6211073 108.628943,9.74499435 C109.49015,8.86960452 110.524177,8.19055367 111.730661,7.70964972 C112.936424,7.22838418 114.290472,6.9879322 115.792083,6.9879322 C117.293333,6.9879322 118.653514,7.22838418 119.872266,7.70964972 C121.090656,8.19055367 122.130455,8.86960452 122.992384,9.74499435 C123.853592,10.6211073 124.518169,11.6819887 124.986114,12.9272768 C125.453338,14.1732881 125.687491,15.5610395 125.687491,17.0905311 C125.687491,18.6203842 125.453338,20.0016271 124.986114,21.2349831 C124.518169,22.4690621 123.853592,23.5237966 122.992384,24.3988249 C122.130455,25.2745763 121.090656,25.9474802 119.872266,26.4157288 C118.653514,26.884339 117.293333,27.1186441 115.792083,27.1186441 C114.290472,27.1186441 112.936424,26.884339 111.730661,26.4157288 C110.524177,25.9474802 109.49015,25.2745763 108.628943,24.3988249 C107.767014,23.5237966 107.102437,22.4690621 106.634852,21.2349831 C106.166907,20.0016271 105.933475,18.6203842 105.933475,17.0905311 C105.933475,15.5610395 106.166907,14.1732881 106.634852,12.9272768" id="Fill-19" fill="#6A6B69"></path>
                        </g>
                    </g>
                    <polygon id="Fill-3" fill="#FFFFFF" points="186.989344 57.8015096 187.016764 39.2812836 191.727248 39.3134644 191.712095 46.3646734 195.472978 46.3726282 195.488131 39.3217808 200.257785 39.3311819 200.217737 57.8362215 195.448805 57.825374 195.463958 50.8081537 191.703075 50.8005605 191.687922 57.818504"></polygon>
                </g>
            </g>
        </g>
    </g>
</svg>