<?xml version="1.0" encoding="UTF-8"?>
<svg width="400px" height="275px" viewBox="0 0 400 275" version="1.1" xmlns="http://www.w3.org/2000/svg" xmlns:xlink="http://www.w3.org/1999/xlink">
    <!-- Generator: Sketch 49.3 (51167) - http://www.bohemiancoding.com/sketch -->
    <title>compare</title>
    <desc>Created with Sketch.</desc>
    <defs>
        <circle id="path-1" cx="23.52" cy="23.38" r="23.15"></circle>
        <circle id="path-3" cx="24.06" cy="23.53" r="23.15"></circle>
        <circle id="path-5" cx="24.08" cy="23.97" r="23.15"></circle>
    </defs>
    <g id="Page-1" stroke="none" stroke-width="1" fill="none" fill-rule="evenodd">
        <g id="compare">
            <path d="M66,263.63 C118.2,274.45 156.22,259.73 205,253.21 C256.69,246.29 313.39,265.84 350.65,226.28 C400.78,173.05 342.41,72.67 278.83,40.88 C219.66,11.33 52.15,33.66 13.12,82 C-16.6,118.79 12.59,139.26 18.87,177.42 C23.26,204.07 19,253.9 66,263.63 Z" id="Shape" fill="#EDF7F7" fill-rule="nonzero"></path>
            <rect id="Rectangle-path" fill="#FFD177" fill-rule="nonzero" x="57.97" y="98.08" width="241.27" height="78.38" rx="9.6"></rect>
            <circle id="Oval" fill="#E3F4F7" fill-rule="nonzero" cx="95.52" cy="137.38" r="23.15"></circle>
            <g id="Clipped" transform="translate(72.000000, 114.000000)">
                <mask id="mask-2" fill="white">
                    <use xlink:href="#path-1"></use>
                </mask>
                <g id="Oval"></g>
                <g id="Group" mask="url(#mask-2)" fill-rule="nonzero">
                    <g transform="translate(4.000000, 7.000000)" id="Shape">
                        <path d="M12.46,11.13 C12.46,11.13 10.46,9.56 10.4,13.3 C10.34,17.04 12.76,16.73 12.76,16.73 L12.46,11.13 Z M26.54,11.13 C26.54,11.13 28.54,9.56 28.6,13.3 C28.66,17.04 26.24,16.73 26.24,16.73 L26.54,11.13 Z" fill="#F9C0B1"></path>
                        <path d="M3.27,29.6 L35.73,29.6 C31.89,25.67 24.41,24.77 24.41,24.77 L24.41,24.35 C24.3989763,22.4854529 24.8599508,20.6484352 25.75,19.01 C26.41,17.81 27.08,15.63 27.11,11.7 C27.17,3.81 19.53,3.56 19.53,3.56 C19.53,3.56 11.88,3.81 11.94,11.7 C11.94,15.63 12.64,17.81 13.3,19.01 C14.1900492,20.6484352 14.6510237,22.4854529 14.64,24.35 L14.64,24.77 C14.64,24.77 7.1,25.63 3.27,29.6 Z" fill="#F9C0B1"></path>
                        <path d="M13.28,8.09 C13.8403258,7.10030226 14.7495493,6.35509552 15.83,6 C17.42,5.57 19.07,6.35 20.71,6.47 C23.4843099,6.6169134 26.0401041,4.96814394 27.05,2.38 C26.5172562,2.84091517 25.794622,3.01598635 25.11,2.85 C24.4211375,2.69022794 23.7508376,2.45897447 23.11,2.16 C21.191023,1.3459059 19.0668516,1.14676483 17.03,1.59 C14.9788526,2.05845006 13.2126724,3.35413146 12.15,5.17 C11.6580203,6.06351729 11.3839204,7.06055574 11.35,8.08 C11.35,8.72 11.35,10.62 12.06,10.89 C12.55,10 12.74,9 13.28,8.09 Z" fill="#47240F"></path>
                        <path d="M12.86,8.66 C13.2212178,7.65337614 13.9306254,6.80918111 14.86,6.28 C16.29,5.48 18.05,5.62 19.65,5.28 C22.1854608,4.75774372 24.1827007,2.80349732 24.76,0.28 C24.3244533,0.811486943 23.6942052,1.14641882 23.01,1.21 C22.3445809,1.26767826 21.6754191,1.26767826 21.01,1.21 C18.9331372,1.11277547 16.8663744,1.55368486 15.01,2.49 C13.2317607,3.35611358 11.8562459,4.87491122 11.17,6.73 C10.9126681,7.55055217 10.8884331,8.42647435 11.1,9.26 C11.23,9.78 11.74,11.26 12.44,11.26 C12.61,10.37 12.55,9.52 12.86,8.66 Z M27.16,10.9 C27.451302,9.61357362 27.4987893,8.28392964 27.3,6.98 C27.2397392,6.26636002 27.0025948,5.57898476 26.61,4.98 C26.2229536,4.39077855 25.5542842,4.04884529 24.85,4.08 C22.91,4.28 23.78,6.36 24.31,7.4 C24.6625917,8.08640125 25.092011,8.73053023 25.59,9.32 C25.74,9.55 27.18,10.82 27.16,10.9 Z" fill="#47240F"></path>
                        <path d="M19.59,44.85 C-2.8,44.59 0.51,33 0.51,33 C0.63,32.16 2.33,26 12.44,25.05 C12.44,25.05 19.75,31.42 25.87,24.86 C25.87,24.86 37.77,26.86 38.68,32.95 C38.68,33 40.19,45.09 19.59,44.85 Z" fill="#069ED9"></path>
                        <path d="M23.33,17.19 C22.6333476,16.9449218 22.0292276,16.4909589 21.6,15.89 C21.19,15.11 19.95,15.64 19.6,15.77 C19.25,15.64 18.07,15.13 17.6,15.89 C17.1537297,16.4740538 16.5551566,16.9238487 15.87,17.19 C15.87,17.19 18.29,18.46 19.6,17.75 C20.91,18.46 23.33,17.19 23.33,17.19 Z M13.21,5 C12.6326905,4.09916064 11.8428679,3.35398022 10.91,2.83 C11.6934474,3.76375894 11.8613912,5.06825286 11.34,6.17 L13.21,5 Z" fill="#47240F"></path>
                    </g>
                </g>
            </g>
            <rect id="Rectangle-path" fill="#F9EFE5" fill-rule="nonzero" x="135.51" y="143.79" width="139.93" height="7.49" rx="3.62"></rect>
            <rect id="Rectangle-path" fill="#F9EFE5" fill-rule="nonzero" x="135.51" y="125.41" width="139.93" height="7.49" rx="3.62"></rect>
            <rect id="Rectangle-path" fill="#FFE3B6" fill-rule="nonzero" x="123.67" y="0" width="241.27" height="78.38" rx="9.6"></rect>
            <rect id="Rectangle-path" fill="#FFD177" fill-rule="nonzero" x="201.2" y="45.7" width="139.93" height="7.49" rx="3.62"></rect>
            <rect id="Rectangle-path" fill="#FFD177" fill-rule="nonzero" x="201.2" y="27.33" width="139.93" height="7.49" rx="3.62"></rect>
            <g id="Clipped" transform="translate(137.000000, 16.000000)">
                <mask id="mask-4" fill="white">
                    <use xlink:href="#path-3"></use>
                </mask>
                <g id="Oval"></g>
                <g id="Group" mask="url(#mask-4)" fill-rule="nonzero">
                    <circle id="Oval" fill="#E3F4F7" cx="24.01" cy="23.53" r="23.15"></circle>
                    <path d="M29.17,31.46 L29,30.13 C28.9868085,28.2093838 29.4616537,26.3168849 30.38,24.63 C31.07,23.39 31.75,21.15 31.78,17.1 C31.85,8.96 23.97,8.7 23.97,8.7 C23.97,8.7 16.09,8.96 16.15,17.1 C16.15,21.1 16.87,23.39 17.55,24.63 C18.4683463,26.3168849 18.9431915,28.2093838 18.93,30.13 L18.93,30.56 C18.93,30.56 17.42,41.26 24.15,41.26 C30.88,41.26 29.17,31.46 29.17,31.46 Z" id="Shape" fill="#7A5C48"></path>
                    <path d="M32.47,13.41 C32.440331,12.3601199 32.1627767,11.332141 31.66,10.41 C30.5727581,8.54378967 28.7637913,7.20877212 26.66,6.72 C24.9616088,6.39999511 23.2183912,6.39999511 21.52,6.72 C19.4151895,7.20655986 17.6054284,8.54216352 16.52,10.41 C16.0094128,11.3295157 15.7281265,12.3586117 15.7,13.41 C15.7,14.07 15.7,16.02 16.43,16.3 C16.89,15.36 17.09,14.3 17.65,13.42 C18.2241544,12.3973041 19.1635634,11.6293461 20.28,11.27 C21.2606661,10.9993227 22.2654444,10.8251611 23.28,10.75 C24.04,10.75 24.83,10.7 25.61,10.75 C26.3289806,10.8398156 27.0407419,10.9801629 27.74,11.17 L28,11.28 C29.0722276,11.7170606 29.988473,12.4660824 30.63,13.43 C31.19,14.34 31.38,15.37 31.84,16.31 C32.43,16 32.49,14.07 32.47,13.41 Z" id="Shape" fill="#2F1713"></path>
                    <path d="M16.72,16.54 C16.72,16.54 14.65,14.93 14.59,18.79 C14.53,22.65 17,22.32 17,22.32 L16.72,16.54 Z M31.18,16.54 C31.18,16.54 33.25,14.93 33.31,18.79 C33.37,22.65 30.88,22.32 30.88,22.32 L31.18,16.54 Z" id="Shape" fill="#7A5C48"></path>
                    <path d="M24.05,51.6 C-2.34,52.17 7.67,35.2 7.67,35.2 C11.77,31.49 18.99,30.62 18.99,30.62 L23.99,36.48 C25.804961,34.6297694 27.5079831,32.6729636 29.09,30.62 C29.09,30.62 35.76,31.42 39.92,34.79 C40,34.79 51.48,51 24.05,51.6 Z" id="Shape" fill="#8DD6E9"></path>
                </g>
            </g>
            <rect id="Rectangle-path" fill="#FFE3B6" fill-rule="nonzero" x="158.73" y="195.78" width="241.27" height="78.38" rx="9.6"></rect>
            <rect id="Rectangle-path" fill="#FFD177" fill-rule="nonzero" x="236.27" y="241.48" width="139.93" height="7.49" rx="3.62"></rect>
            <rect id="Rectangle-path" fill="#FFD177" fill-rule="nonzero" x="236.27" y="223.1" width="139.93" height="7.49" rx="3.62"></rect>
            <g id="Clipped" transform="translate(172.000000, 211.000000)">
                <mask id="mask-6" fill="white">
                    <use xlink:href="#path-5"></use>
                </mask>
                <g id="Oval"></g>
                <g id="Group" mask="url(#mask-6)" fill-rule="nonzero">
                    <circle id="Oval" fill="#E3F4F7" cx="24.03" cy="23.97" r="23.15"></circle>
                    <path d="M34.32,16.91 C33.7840224,11.8207588 29.4923868,7.95736574 24.375,7.95736574 C19.2576132,7.95736574 14.9659776,11.8207588 14.43,16.91 L14.43,20.79 C14.43,24.6118105 17.5281895,27.71 21.35,27.71 L34.35,29.09 L34.32,16.91 Z" id="Shape" fill="#273472"></path>
                    <path d="M27.49,27.63 C27.765792,26.9880488 28.1515889,26.3992008 28.63,25.89 C30.5705453,23.8382535 31.7004993,21.1519478 31.81,18.33 C31.81,13.24 28.5,10.33 24.42,10.33 L24.33,10.33 C20.25,10.33 16.94,13.27 16.94,18.33 C17.0495007,21.1519478 18.1794547,23.8382535 20.12,25.89 C20.5994072,26.3964078 20.9823499,26.9860718 21.25,27.63 C22.33,30.27 21.34,31.55 16.75,32.29 C15.435397,32.4888441 14.1854767,32.9922367 13.1,33.76 C20.1595189,37.4674127 28.5904811,37.4674127 35.65,33.76 C34.5617731,32.9904699 33.3081856,32.4869798 31.99,32.29 C27.41,31.55 26.41,30.27 27.49,27.63 Z" id="Shape" fill="#BB917C"></path>
                    <path d="M31.44,21.44 C31.44,21.44 28.69,16.44 25.19,16.44 C21.69,16.44 19.11,15.11 18.06,12.71 C17.01,10.31 19.72,10.25 19.72,10.25 L27.42,10.25 L31.67,13.32 L32.73,15.43 L33.21,18.85 L33,21.45 L31.44,21.44 Z" id="Shape" fill="#273472"></path>
                    <path d="M9.68,46.92 C6.57,44.25 7.68,38.7 7.68,38.7 C7.78,37.97 9.21,32.98 18.03,32.06 C21.7310018,33.9704224 26.1515841,33.8572675 29.75,31.76 C29.75,31.76 40.54,33.37 41.02,38.7 C41.02,38.7 42.26,46.46 38.02,48.45 C33.78,50.44 15.42,51.86 9.68,46.92 Z" id="Shape" fill="#FEBE10"></path>
                </g>
            </g>
            <path d="M95.52,142.42 C102.683296,142.417758 109.441228,145.743148 113.81,151.42 C121.183278,141.910398 120.041669,128.337611 111.183513,120.193236 C102.325357,112.048862 88.7046434,112.048862 79.846487,120.193236 C70.9883307,128.337611 69.8467218,141.910398 77.22,151.42 C81.5948871,145.745217 88.3546108,142.420762 95.52,142.42 Z" id="Shape" fill="#E3F4F7" fill-rule="nonzero"></path>
            <ellipse id="Oval" fill="#069ED9" fill-rule="nonzero" cx="95.52" cy="151.43" rx="18.3" ry="9"></ellipse>
            <circle id="Oval" fill="#F9C0B1" fill-rule="nonzero" cx="95.52" cy="130.11" r="9.17"></circle>
            <path d="M161.06,44.67 C168.225389,44.6707624 174.985113,47.9952167 179.36,53.67 C186.743782,44.1577906 185.606345,30.5742408 176.743445,22.4224699 C167.880545,14.2706991 154.249455,14.2706991 145.386555,22.4224699 C136.523655,30.5742408 135.386218,44.1577906 142.77,53.67 C147.138772,47.9931482 153.896704,44.6677581 161.06,44.67 Z" id="Shape" fill="#E3F4F7" fill-rule="nonzero"></path>
            <ellipse id="Oval" fill="#8DD6E9" fill-rule="nonzero" cx="161.06" cy="53.68" rx="18.3" ry="9"></ellipse>
            <circle id="Oval" fill="#7A5C48" fill-rule="nonzero" cx="161.06" cy="32.36" r="9.17"></circle>
            <path d="M196.08,240.12 C203.245744,240.119237 210.006104,243.444005 214.38,249.12 C221.763782,239.607791 220.626345,226.024241 211.763445,217.87247 C202.900545,209.720699 189.269455,209.720699 180.406555,217.87247 C171.543655,226.024241 170.406218,239.607791 177.79,249.12 C182.157777,243.441933 188.916348,240.116228 196.08,240.12 Z" id="Shape" fill="#E3F4F7" fill-rule="nonzero"></path>
            <ellipse id="Oval" fill="#FEBE10" fill-rule="nonzero" cx="196.08" cy="249.12" rx="18.3" ry="9"></ellipse>
            <circle id="Oval" fill="#BB917C" fill-rule="nonzero" cx="196.08" cy="227.8" r="9.17"></circle>
        </g>
    </g>
</svg>