<?xml version="1.0" encoding="UTF-8"?>
<svg width="400px" height="275px" viewBox="0 0 400 275" version="1.1" xmlns="http://www.w3.org/2000/svg" xmlns:xlink="http://www.w3.org/1999/xlink">
    <!-- Generator: Sketch 49.3 (51167) - http://www.bohemiancoding.com/sketch -->
    <title>hire</title>
    <desc>Created with Sketch.</desc>
    <defs></defs>
    <g id="Page-1" stroke="none" stroke-width="1" fill="none" fill-rule="evenodd">
        <g id="hire">
            <path d="M321.71,35.94 C251.85,34.83 206.89,66.3 112.71,71.33 C-1.38,77.43 -66.09,139.93 103.96,227.05 C159,255.29 263,291.21 340.44,207.63 C348.86,198.54 481.31,38.47 321.71,35.94 Z" id="Shape" fill="#EDF7F7" fill-rule="nonzero"></path>
            <path d="M190.3,70.44 C196.93,69.96 226.2,63.76 229.57,62.06 C232.94,60.36 238.84,59.85 240.14,64.31 C241.44,68.77 240.89,82.7 212,89.66 L190.3,70.44 Z" id="Shape" fill="#9D7867" fill-rule="nonzero"></path>
            <path d="M172.6,44.29 C179.37,41.13 207.6,22.9 210.46,19.76 C213.32,16.62 219.31,13.76 222.46,17.89 C225.61,22.02 230.62,36.89 203.04,55.78 L172.6,44.29 Z" id="Shape" fill="#9D7867" fill-rule="nonzero"></path>
            <path d="M130.67,108.31 C155.95,86.44 149.3,72.25 145.67,68.47 C142.04,64.69 136.46,68.24 133.97,71.68 C131.48,75.12 105.49,96.42 99.11,100.32 L92.47,106.48 C92.47,106.48 73.47,128.31 67.05,150.34 C60.63,172.37 13.05,194.46 13.05,194.46 L58.05,253.3 C58.05,253.3 99.55,206.71 104.36,205 C109.17,203.29 145.2,207.45 162.17,185 L130.67,108.31 Z" id="Shape" fill="#9D7867" fill-rule="nonzero"></path>
            <path d="M196,104.14 C202.14,104.71 229.88,103.46 233.23,102.41 C236.58,101.36 242.05,101.8 242.56,106.08 C243.07,110.36 240.46,123.08 212.92,125.02 L196,104.14 Z" id="Shape" fill="#9D7867" fill-rule="nonzero"></path>
            <path d="M217.38,154.26 L189.52,20.4 L166.78,25.13 L169.27,3.24 L183.78,0.24 C189.40758,-0.929783277 194.918264,2.68282593 196.09,8.31 L228.24,162.77 C229.409783,168.39758 225.797174,173.908264 220.17,175.08 L148,190.08 L150.49,168.18 L217.38,154.26 Z" id="Shape" fill="#D4DADD" fill-rule="nonzero"></path>
            <polygon id="Shape" fill="#FAFDFC" fill-rule="nonzero" points="217.38 154.26 150.49 168.18 166.78 25.14 189.52 20.4"></polygon>
            <path d="M135.35,182.08 L103.2,27.62 C102.030217,21.9924197 105.642826,16.4817358 111.27,15.31 L169.27,3.24 L166.78,25.13 L114.06,36.13 L141.92,170 L150.49,168.21 L148,190.08 L147.66,190.15 C142.03242,191.319783 136.521736,187.707174 135.35,182.08 Z" id="Shape" fill="#CFD6D9" fill-rule="nonzero"></path>
            <polygon id="Shape" fill="#F5F7F6" fill-rule="nonzero" points="141.92 169.97 114.06 36.11 166.78 25.14 150.49 168.18"></polygon>
            <path d="M381.37,223.93 C381.37,223.93 362.98,216.08 360.08,210.38 C360.08,210.38 331.8,164.76 319.51,155.15 C307.22,145.54 296.29,155.61 296.29,155.61 C296.29,155.61 293.96,157.99 287.54,158.41 C278.96,158.96 278.27,163.96 275.6,165.41 C272.43,167.15 270.09,166.05 265.07,165.49 C258.44,164.74 251.96,170.42 251.96,170.42 C251.96,170.42 217.49,140.69 208.71,137.7 C204.35,136.21 200.71,134.17 196.71,138.7 C192.71,143.23 202.52,153.28 206.63,156.81 C213.13,162.38 231.27,179.41 236.79,187.9 C236.79,187.9 253.47,210.62 254.54,213.65 C254.54,213.65 251.62,215.89 246.97,214.38 C242.32,212.87 219.43,194.23 203.28,198.3 C203.28,198.3 197.35,199.84 198.12,205.85 C198.12,205.85 226.12,224.14 227.85,227.7 C233.857628,234.530207 240.251426,241.010813 247,247.11 C247,247.11 268.91,265.11 302,260.34 C302,260.34 322.51,255.44 341.43,275 L381.37,223.93 Z" id="Shape" fill="#9F7867" fill-rule="nonzero"></path>
            <circle id="Oval" fill="#069ED9" fill-rule="nonzero" cx="164.69" cy="92.18" r="25.61"></circle>
            <circle id="Oval" cx="164.69" cy="92.18" r="28.79"></circle>
            <path d="M125.27,133.64 C123.17,123.58 125.8,112.57 130.67,108.31 C156.32,85.9 149.87,71.61 145.67,68.47 C141.47,65.33 137.24,68.53 133.97,71.68 C130.91,74.63 105.49,96.42 99.11,100.32 C99.11,100.32 93.3,103.32 91.5,104.84 C81.73,113.21 73.5,128.31 67.05,150.34 L125.27,133.64 Z" id="Shape" fill="#9D7867" fill-rule="nonzero"></path>
            <path d="M166.52,101.32 C166.278286,101.320008 166.038285,101.279444 165.81,101.2 L155.24,97.4 C154.525469,97.1445551 154.001493,96.5273164 153.865449,95.7807918 C153.729405,95.0342672 154.001962,94.2718715 154.580449,93.7807918 C155.158937,93.2897121 155.955469,93.1445551 156.67,93.4 L165.26,96.49 L171.45,79.34 C171.844884,78.2354306 173.060431,77.6601165 174.165,78.0550001 C175.269569,78.4498837 175.844884,79.6654305 175.45,80.77 L168.5,99.93 C168.199977,100.765138 167.407393,101.321548 166.52,101.32 Z" id="Shape" fill="#FAFDFC" fill-rule="nonzero"></path>
        </g>
    </g>
</svg>