<?xml version="1.0" encoding="UTF-8"?>
<svg width="400px" height="275px" viewBox="0 0 400 275" version="1.1" xmlns="http://www.w3.org/2000/svg" xmlns:xlink="http://www.w3.org/1999/xlink">
    <!-- Generator: Sketch 49.3 (51167) - http://www.bohemiancoding.com/sketch -->
    <title>estimates</title>
    <desc>Created with Sketch.</desc>
    <defs>
        <path d="M49.33,255.49 C107.86,272.04 163.41,246.23 219.77,244.39 C272.46,242.67 313.27,270.99 357.57,242.67 C417.94,204.08 376.57,50.42 313.45,20.19 C220.85,-24.18 166.36,20.09 82.81,25.26 C8.2,29.88 -14.65,55.9 9.51,122.1 C33.26,187.15 -18.51,236.31 49.33,255.49 Z" id="path-1"></path>
        <path d="M16,0.18 L16,4.18 C19.22708,4.46275463 22.3400305,5.51183265 25.08,7.24 L22.36,11.9 C20.4148821,10.7085784 18.2534682,9.91334123 16,9.56 L16,16.5 C21.34,17.33 25.47,19.68 25.36,24.64 C25.23,30.01 21.12,32.93 16.03,33.64 L16.03,38 L11.2,38 L11.2,33.8 C7.46514928,33.5779868 3.86810632,32.3096653 0.82,30.14 L3.82,25.53 C5.98779974,27.1294004 8.52146362,28.1607426 11.19,28.53 L11.19,21.53 L10.95,21.53 C5.62,20.68 1.77,18.37 1.88,13.2 C1.97,8.28 5.88,5.1 11.19,4.36 L11.19,0.18 L16,0.18 Z M11.17,15.67 L11.17,9.67 C9.17,10.15 7.89,11.24 7.84,12.8 C7.79,14.36 9,15.13 11.17,15.67 Z M16,22.29 L16,28.29 C18,27.81 19.33,26.74 19.38,25.11 C19.4,23.7 18.2,22.85 16,22.29 Z" id="path-3"></path>
        <polygon id="path-5" points="0.67 0.93 483.22 0.93 483.22 284.78 0.67 284.78"></polygon>
        <path d="M10.2,0.77 L10.2,3.33 C12.2435852,3.51060962 14.2147036,4.1756478 15.95,5.27 L14.23,8.27 C13.0065567,7.51334912 11.648256,7.00059061 10.23,6.76 L10.23,11.16 C13.61,11.69 16.23,13.16 16.16,16.33 C16.08,19.74 13.47,21.59 10.24,22.06 L10.24,24.79 L7.18,24.79 L7.18,22.13 C4.80985113,21.9869082 2.52707047,21.1832585 0.59,19.81 L2.48,16.88 C3.86070818,17.8837157 5.46863033,18.5296331 7.16,18.76 L7.16,14.31 L7.01,14.31 C3.63,13.78 1.18,12.31 1.25,9.03 C1.31,5.91 3.77,3.89 7.16,3.42 L7.16,0.84 L10.2,0.77 Z M7.13,10.6 L7.13,6.79 C5.85,7.09 5.05,7.79 5.02,8.79 C4.99,9.79 5.78,10.25 7.13,10.6 Z M10.2,14.8 L10.2,18.62 C11.47,18.32 12.31,17.62 12.34,16.62 C12.37,15.62 11.59,15.16 10.2,14.8 Z" id="path-7"></path>
        <polygon id="path-9" points="0.91 0.74 307.03 0.74 307.03 180.81 0.91 180.81"></polygon>
        <path d="M15.83,0.15 L15.83,4.15 C19.0538459,4.44036559 22.1625599,5.49259842 24.9,7.22 L22.18,11.88 C20.2400743,10.6795087 18.0820946,9.87408948 15.83,9.51 L15.83,16.45 C21.16,17.27 25.29,19.62 25.18,24.59 C25.05,29.96 20.94,32.88 15.85,33.59 L15.85,38 L11,38 L11,33.8 C7.26514928,33.5779868 3.66810632,32.3096653 0.62,30.14 L3.62,25.53 C5.7923318,27.1213031 8.3238751,28.151782 10.99,28.53 L10.99,21.53 L10.75,21.53 C5.42,20.68 1.57,18.37 1.68,13.19 C1.77,8.27 5.68,5.1 10.99,4.36 L10.99,0.15 L15.83,0.15 Z M11,15.64 L11,9.64 C9,10.11 7.72,11.2 7.68,12.77 C7.64,14.34 8.86,15.1 11,15.64 Z M15.84,22.26 L15.84,28.26 C17.84,27.78 19.16,26.72 19.21,25.09 C19.22,23.67 18,22.82 15.83,22.26 L15.84,22.26 Z" id="path-11"></path>
        <polygon id="path-13" points="0.49 0.89 483.04 0.89 483.04 284.74 0.49 284.74"></polygon>
    </defs>
    <g id="Page-1" stroke="none" stroke-width="1" fill="none" fill-rule="evenodd">
        <g id="estimates">
            <path d="M62.33,269.49 C120.86,286.04 176.41,260.23 232.77,258.39 C285.46,256.67 326.27,284.99 370.57,256.67 C430.94,218.08 389.57,64.42 326.45,34.19 C233.85,-10.18 179.36,34.09 95.81,39.26 C21.2,43.88 -1.65,69.9 22.51,136.1 C46.26,201.15 -5.51,250.31 62.33,269.49 Z" id="Shape" fill="#EDF7F7" fill-rule="nonzero"></path>
            <g id="Clipped" transform="translate(13.000000, 14.000000)">
                <mask id="mask-2" fill="white">
                    <use xlink:href="#path-1"></use>
                </mask>
                <g id="Shape"></g>
                <g id="Group" mask="url(#mask-2)" fill-rule="nonzero">
                    <g transform="translate(28.000000, 42.000000)">
                        <path d="M0.13,208.73 C0.13,186.53 19.93,181.36 48.44,167.11 C76.95,152.86 70.14,126.74 70.14,126.74 L105.91,126.74 C105.91,126.74 99.1,152.85 127.6,167.11 C156.1,181.37 175.91,186.53 175.91,208.73 L33.33,219.73 L0.13,208.73 Z" id="Shape" fill="#9F7766"></path>
                        <path d="M132.06,80.29 C135.217848,76.947697 136.549036,72.2763257 135.627367,67.7714932 C134.705698,63.2666606 131.646791,59.4934839 127.43,57.66 C127.43,57.51 127.5,57.35 127.53,57.18 C127.888778,54.7458315 126.625316,52.3606415 124.41,51.29 C124.682723,50.5483085 124.880378,49.7811368 125,49 C126.021582,42.7074002 121.751713,36.7770273 115.46,35.75 C113.920128,35.5193029 112.348823,35.6181485 110.85,36.04 C110.951524,35.712876 111.028406,35.3786078 111.08,35.04 C111.593895,31.6056774 109.676614,28.2693119 106.450619,26.9841595 C103.224625,25.6990071 99.5383897,26.8030779 97.55,29.65 C95.4795159,26.3755479 91.9479451,24.3103788 88.0789127,24.1115591 C84.2098803,23.9127393 80.4852232,25.6050293 78.09,28.65 C74.7308114,26.1076948 70.2798224,25.5255407 66.3797875,27.1183971 C62.4797526,28.7112535 59.7089434,32.242942 59.09,36.41 C59.0027524,36.9758083 58.9592901,37.5475049 58.96,38.12 C53.8035216,39.9492217 50.0794139,44.4773982 49.28,49.89 C49.1802208,50.5519961 49.130081,51.2205265 49.13,51.89 C46.247567,52.2769212 43.9684274,54.5234434 43.54,57.4 C43.4350236,58.0625342 43.4350236,58.7374658 43.54,59.4 C37.864511,61.2901444 33.7174293,66.1883693 32.7893313,72.0978918 C31.8612332,78.0074142 34.3071528,83.9410784 39.13,87.48 C39.2829386,88.7232353 39.7896896,89.8963987 40.59,90.86 C40.2977631,91.4502541 40.108379,92.0860435 40.03,92.74 C39.7237858,95.6226526 41.6374718,98.2733663 44.47,98.89 C44.8606498,98.9771394 45.2597501,99.0207385 45.66,99.02 C47.0283011,101.956462 50.1744728,103.633233 53.3750347,103.131775 C56.5755966,102.630316 59.0581657,100.071642 59.4627848,96.8574021 C59.8674038,93.6431618 58.0964271,90.5490383 55.12,89.27 C59.2717206,87.4548676 62.459131,83.9644985 63.8908685,79.6654733 C65.3226059,75.3664481 64.8643953,70.6619497 62.63,66.72 C66.3493799,67.0493404 70.0552528,65.9558041 73,63.66 C75.4521532,67.0036411 79.1388752,69.2286355 83.24,69.84 C88.574835,70.6004418 93.9271537,68.5735059 97.42,64.47 C97.81,64.59 98.2,64.69 98.6,64.78 C99.6772506,68.4713209 102.798348,71.2022809 106.6,71.78 C106.97,71.78 107.34,71.86 107.7,71.88 C108.236596,77.7292921 112.338343,82.6354593 118,84.2 C116.449242,88.4793159 118.365203,93.2402328 122.447897,95.2524478 C126.530591,97.2646627 131.47342,95.884201 133.922655,92.0477119 C136.371889,88.2112229 135.543692,83.1465086 132,80.29 L132.06,80.29 Z" id="Shape" fill="#472B22"></path>
                        <ellipse id="Oval" fill="#9F7766" transform="translate(59.932830, 95.827234) rotate(-17.950000) translate(-59.932830, -95.827234) " cx="59.9328299" cy="95.827234" rx="10.85" ry="13.75"></ellipse>
                        <ellipse id="Oval" fill="#E0E3E7" style="mix-blend-mode: multiply;" transform="translate(59.932830, 95.827234) rotate(-17.950000) translate(-59.932830, -95.827234) " cx="59.9328299" cy="95.827234" rx="10.85" ry="13.75"></ellipse>
                        <ellipse id="Oval" fill="#9F7766" transform="translate(116.134756, 95.852540) rotate(-72.050000) translate(-116.134756, -95.852540) " cx="116.134756" cy="95.85254" rx="13.75" ry="10.85"></ellipse>
                        <path d="M70,141.4 C72.7805987,142.819574 75.7311439,143.878141 78.78,144.55 C80.3406167,144.900004 81.9593833,144.900004 83.52,144.55 C92.29,142.55 100.16,137.84 105.52,128.76 C105.71,127.48 105.9,126.76 105.9,126.76 L70.14,126.76 C71.1359915,131.594329 71.0882607,136.585602 70,141.4 Z" id="Shape" fill="#CFD2D6" style="mix-blend-mode: multiply;"></path>
                        <ellipse id="Oval" fill="#E0E3E7" style="mix-blend-mode: multiply;" transform="translate(116.134756, 95.852540) rotate(-72.050000) translate(-116.134756, -95.852540) " cx="116.134756" cy="95.85254" rx="13.75" ry="10.85"></ellipse>
                        <path d="M85.65,135.31 C87.209507,135.669883 88.830493,135.669883 90.39,135.31 C108.18,131.31 122.27,116 119.18,75.91 C118.1,61.79 100.18,52.32 88.02,52.32 C75.86,52.32 58,61.79 56.86,75.91 C53.77,116 67.87,131.29 85.65,135.31 Z" id="Shape" fill="#9F7766"></path>
                        <path d="M24,217.36 L55.14,221.82 L103.63,218.82 L152.2,208.74 L152.2,179 C145.49,175.57 137.6,172.07 128.87,167.75 C122.14,215.01 53.87,215.01 47.18,167.75 C38.45,172.07 30.56,175.57 23.85,179 L24,217.36 Z" id="Shape" fill="#E2A625"></path>
                        <path d="M67.25,87 C67.25,84.1446878 69.5646878,81.83 72.42,81.83 C75.2753122,81.83 77.59,84.1446878 77.59,87 M98.46,87 C98.46,84.1446878 100.774688,81.83 103.63,81.83 C106.485312,81.83 108.8,84.1446878 108.8,87" id="Shape" fill="#CFD2D6" style="mix-blend-mode: multiply;"></path>
                        <path d="M74.49,72.85 C75.2281709,72.8041704 75.9690958,72.8647916 76.69,73.03 C77.3674427,73.1681406 77.9615341,73.5714026 78.34,74.15 C78.6549069,74.9788744 78.2921601,75.9116517 77.5,76.31 C76.6282061,76.8188953 75.6679757,77.1581993 74.67,77.31 C72.56,77.73 70.41,78.05 68.24,78.31 C67,78.43 63.49,79.15 62.43,78.47 C60.11,76.96 67.43,74.21 68.58,73.88 C70.4968805,73.2813445 72.4836156,72.9350946 74.49,72.85 Z" id="Shape" fill="#472B22"></path>
                        <circle id="Oval" fill="#6E4F41" cx="103.63" cy="87.03" r="2.4"></circle>
                        <path d="M101.56,72.85 C100.821833,72.8045861 100.080968,72.8652024 99.36,73.03 C98.6825573,73.1681406 98.0884659,73.5714026 97.71,74.15 C97.3915555,74.9814769 97.7603041,75.9185321 98.56,76.31 C99.4278223,76.8197002 100.384942,77.1591044 101.38,77.31 C103.49,77.73 105.64,78.05 107.81,78.31 C109.05,78.43 112.56,79.15 113.62,78.47 C115.95,76.96 108.62,74.21 107.47,73.88 C105.553416,73.28012 103.566519,72.9338419 101.56,72.85 Z" id="Shape" fill="#472B22"></path>
                        <path d="M87.72,124 C94.89,124 100.42,118.07 101.23,112 C95.4,110.92 94.89,107.58 87.72,107.58 C80.55,107.58 80,110.91 74.21,112 C75,118 80.55,124 87.72,124 Z" id="Shape" fill="#ED6A53"></path>
                        <path d="M87.72,118 C94.89,118 101.23,112 101.23,112 C92.2928629,113.504348 83.1671371,113.504348 74.23,112 C74.23,112 80.55,118 87.72,118 Z" id="Shape" fill="#FAFBFB"></path>
                        <path d="M68.32,100.58 C61.0802089,100.574494 55.2110258,94.7097848 55.2,87.47 L55.2,79.31 C55.2054821,77.8929051 56.3529051,76.7454821 57.77,76.74 L83,76.74 C84.4209985,76.7399893 85.5744923,77.8890121 85.58,79.31 L85.58,83.37 C85.5634446,92.8874844 77.8374924,100.591056 68.32,100.58 Z M57.75,79.26 C57.7410684,79.2754701 57.7410684,79.2945299 57.75,79.31 L57.75,87.47 C57.761021,93.3180277 62.5019645,98.0544986 68.35,98.06 C76.4428699,98.0269974 82.989064,91.4629298 83,83.37 L83,79.31 L82.95,79.26 L57.75,79.26 Z M107.73,100.58 C98.228131,100.563472 90.5310087,92.861877 90.52,83.36 L90.52,79.31 C90.52,77.8906282 91.6706282,76.74 93.09,76.74 L118.28,76.74 C119.699372,76.74 120.85,77.8906282 120.85,79.31 L120.85,87.46 C120.844485,94.7036904 114.97369,100.574485 107.73,100.58 Z M93.09,79.26 L93.04,79.31 L93.04,83.36 C93.051017,91.4684952 99.6215048,98.038983 107.73,98.05 C113.578035,98.0444986 118.318979,93.3080277 118.33,87.46 L118.33,79.31 C118.33,79.2823858 118.307614,79.26 118.28,79.26 L93.09,79.26 Z" id="Shape" fill="#FFE3B6"></path>
                        <path d="M90.85,84.3 C88.9743361,83.3026591 86.7256639,83.3026591 84.85,84.3 L83.67,82.07 C86.2788307,80.6903614 89.4011693,80.6903614 92.01,82.07 L90.85,84.3 Z" id="Shape" fill="#FFE3B6"></path>
                        <circle id="Oval" fill="#6E4F41" cx="72.42" cy="87.03" r="2.4"></circle>
                        <path d="M97.73,99.42 C97.67,101.2 96.49,102.62 95.04,102.62 C94.1528823,102.593364 93.344589,102.103834 92.91,101.33 C90.1534953,103.722773 86.0565047,103.722773 83.3,101.33 C82.8571878,102.07433 82.0656273,102.541728 81.2,102.57 C79.72,102.57 78.51,101.1 78.5,99.27 C77.964917,99.9468941 77.6789212,100.787227 77.69,101.65 C77.69,103.49 78.89,104.98 80.38,104.98 C80.7279085,104.97305 81.0697515,104.88759 81.38,104.73 C82.97,107.07 85.38,107.52 88.03,107.52 C90.68,107.52 93.09,107.07 94.69,104.73 C95.0001265,104.887916 95.3420456,104.973396 95.69,104.98 C97.18,104.98 98.39,103.49 98.39,101.65 C98.4077856,100.856048 98.1770325,100.076382 97.73,99.42 Z" id="Shape" fill="#CFD2D6" style="mix-blend-mode: multiply;"></path>
                        <circle id="Oval" fill="#E1A625" cx="121.7" cy="106.98" r="2.71"></circle>
                        <circle id="Oval" fill="#E1A625" cx="54.67" cy="106.98" r="2.71"></circle>
                        <polygon id="Shape" fill="#568CC9" points="85.61 90.74 85.61 90.88 85.61 90.61 85.61 90.74"></polygon>
                        <path d="M339.67,224 C338.78,216.52 336.23,208 330.67,201.9 C317.67,187.61 289.57,178.42 272.51,168.44 C255.29,158.37 248.79,145.37 247.51,135.95 C246.23,126.53 248.01,115.15 248.01,115.15 L224.55,127.44 L201.1,115.15 C201.1,115.15 202.89,126.53 201.59,135.95 C200.29,145.37 193.8,158.37 176.59,168.44 C159.38,178.51 131.42,187.61 118.43,201.9 C112.86,208.03 110.3,216.52 109.43,224 L339.67,224 Z" id="Shape" fill="#F9D1C6"></path>
                        <path d="M339.67,224 C338.78,216.52 336.23,208 330.67,201.9 C317.67,187.61 289.57,178.42 272.51,168.44 C271.153226,167.641284 269.819357,166.804282 268.51,165.93 L247.04,204.67 C246.609415,205.438098 245.837046,205.953549 244.962522,206.056434 C244.087997,206.15932 243.21709,205.837195 242.62,205.19 L224.31,185.12 L206,205.21 C205.40291,205.857195 204.532003,206.17932 203.657478,206.076434 C202.782954,205.973549 202.010585,205.458098 201.58,204.69 L180.23,166.15 C179.05,166.93 177.83,167.7 176.54,168.46 C159.47,178.46 131.37,187.63 118.38,201.92 C112.81,208.05 110.25,216.54 109.38,224.02 L339.67,224 Z" id="Shape" fill="#069ED9"></path>
                        <path d="M200.12,142 C208.914288,142.468523 217.728646,141.59518 226.26,139.41 C233.857305,137.009673 240.90557,133.132107 247,128 C247.032035,124.477416 247.25235,120.959063 247.66,117.46 L224.51,129.59 L201.36,117.46 C202.149264,123.60453 202.213035,129.820571 201.55,135.98 C201.261945,138.026839 200.783195,140.042272 200.12,142 Z" id="Shape" fill="#F8C5B9"></path>
                        <path d="M274,71.64 C272.69841,66.1714299 268.192659,62.050074 262.63,61.24 L257.12,97 C257.12,97 263.62,96 267.52,92.78 C271.42,89.56 276.29,81.06 274,71.64 Z M173.62,71.64 C171.35,81.06 176.22,89.51 180.12,92.76 C184.02,96.01 190.52,96.98 190.52,96.98 L185,61.24 C179.433504,62.0462967 174.92296,66.1684107 173.62,71.64 Z" id="Shape" fill="#F8C6BA"></path>
                        <path d="M266.88,59.62 C266.522174,36.1851018 247.42263,17.3749618 223.985,17.3749618 C200.54737,17.3749618 181.447826,36.1851018 181.09,59.62 L181.09,72.79 C181.09,103.2 187.92,131.79 223.98,131.79 C260.04,131.79 266.88,103.25 266.88,72.79 L266.88,59.62 Z" id="Shape" fill="#F9D1C6"></path>
                        <path d="M267.19,62.54 C270.77,53.44 270.91,42.05 269.72,34.3 C269.09,30.19 268,26.03 265.54,22.68 C263.08,19.33 259,16.9 254.9,17.32 C243.18,18.5 248.39,30.89 251.63,37.09 C253.77,41.18 267.3,62.07 267.19,62.54 Z" id="Shape" fill="#634031"></path>
                        <path d="M242.83,60.59 C239.151784,60.59 236.17,63.5717836 236.17,67.25 L249.49,67.25 C249.49,63.5717836 246.508216,60.59 242.83,60.59 Z M204,60.59 C200.321784,60.59 197.34,63.5717836 197.34,67.25 L210.66,67.25 C210.66,63.5717836 207.678216,60.59 204,60.59 Z" id="Shape" fill="#CA5C49" opacity="0.2"></path>
                        <path d="M206.44,101.2 C212.472453,101.991064 218.546361,102.425153 224.63,102.5 C230.177677,102.472103 235.715848,102.037605 241.2,101.2 C241.2,101.2 233.73,110.63 224.31,110.63 C214.89,110.63 206.44,101.2 206.44,101.2 Z" id="Shape" fill="#FFFFFF"></path>
                        <path d="M224.2,115.82 C220.772916,115.852481 217.414878,114.856216 214.56,112.96 C215.9,116.32 219.71,118.75 224.2,118.75 C228.69,118.75 232.5,116.32 233.84,112.96 C230.985122,114.856216 227.627084,115.852481 224.2,115.82 Z" id="Shape" fill="#F6B8AB"></path>
                        <path d="M207.52,157.41 L224.32,185.14 L241.12,157.41 C241.12,157.41 231.78,164.23 224.96,164.23 C218.14,164.23 207.52,157.41 207.52,157.41 Z" id="Shape" fill="#FFFFFF"></path>
                        <circle id="Oval" fill="#9E7768" cx="242.83" cy="67.25" r="3.09"></circle>
                        <circle id="Oval" fill="#9E7768" cx="204" cy="67.25" r="3.09"></circle>
                        <path d="M265.91,23.21 C265.79,23.03 265.67,22.85 265.54,22.68 C263.09,19.32 259.04,16.9 254.9,17.32 C244.96,18.32 245.14,20.32 248.03,26.8 C255.5,27.45 261.61,28 265.91,23.21 Z" id="Shape" fill="#47240F"></path>
                        <path d="M186.49,41 C190.08,35.25 195.39,30.28 201.93,28.52 C211.56,25.92 221.53,30.57 231.48,31.32 C247.69,32.55 264.1,22.11 269.86,6.91 C266.86,9.82 262.21,10.45 258.08,9.72 C253.95,8.99 250.14,7.1 246.24,5.55 C234.61,0.93 221.6,-0.71 209.42,2.16 C197.24,5.03 186,12.62 179.86,23.53 C176.804436,28.8198887 175.148902,34.8018407 175.05,40.91 C175.05,47.59 175.9,57.02 181.05,62.54 C182.07,56 183.21,46.24 186.49,41 Z M256.8,57.67 C256.8,57.67 252.52,50.73 242.51,50.29 C234.14,49.92 231.51,51.74 231.43,53.62 C231.3,56.36 233.86,57.38 243.75,56.1 C248.16296,55.5679427 252.639154,56.1064579 256.8,57.67 Z" id="Shape" fill="#634031"></path>
                        <rect id="Rectangle-path" fill="#077A96" x="266.55" y="202.9" width="25.34" height="7.15" rx="2.61"></rect>
                        <path d="M231.29,86.83 C230.273915,86.8342913 229.29428,86.4517329 228.55,85.76 C227.574113,87.7444188 225.585781,89.0311723 223.375739,89.1085342 C221.165696,89.1858962 219.092256,88.0413239 217.98,86.13 C216.820808,86.9122731 215.342284,87.0480559 214.06,86.49 C213.922435,86.4126825 213.748742,86.4510433 213.656537,86.5791064 C213.564331,86.7071696 213.583042,86.8840616 213.7,86.99 C214.872177,88.2084839 216.445762,88.9615315 218.13,89.11 C219.43,90.11 221.13,91.38 223.34,91.38 C225.55,91.38 227.28,90.06 228.53,89.11 C230.443696,89.1390396 232.272925,88.3232034 233.53,86.88 C233.630579,86.7602282 233.629845,86.5853019 233.528264,86.4663783 C233.426684,86.3474548 233.254023,86.3193825 233.12,86.4 C232.553629,86.688886 231.925759,86.8364183 231.29,86.83 Z" id="Shape" fill="#F6B8AB"></path>
                        <path d="M246.4,206.07 L270.24,167.07 C258.76,159.78 252.49,151.19 249.5,143.56 L224.32,185.13 L243.65,206.32 C244.016814,206.717768 244.547799,206.922252 245.08666,206.873265 C245.625522,206.824277 246.110928,206.527394 246.4,206.07 Z M178,167.58 L202.24,206.11 C202.526411,206.565464 203.00945,206.860665 203.545415,206.907783 C204.08138,206.9549 204.608515,206.748506 204.97,206.35 L224.32,185.14 L199.38,144 C196.26,151.67 189.79,160.32 178,167.58 Z" id="Shape" fill="#077A96"></path>
                        <path d="M229.53,93.08 C226.27,92.66 224.53,94 223.53,95.42 C222.53,94 220.77,92.66 217.53,93.08 C207.46,94.38 202.26,103.8 202.26,103.8 L244.8,103.8 C244.8,103.8 239.6,94.38 229.53,93.08 Z M190.19,57.67 C190.19,57.67 194.47,50.73 204.48,50.29 C212.85,49.92 215.48,51.74 215.56,53.62 C215.69,56.36 213.13,57.38 203.24,56.1 C198.82704,55.5679427 194.350846,56.1064579 190.19,57.67 Z" id="Shape" fill="#634031"></path>
                    </g>
                </g>
            </g>
            <path d="M57.42,30 L28.76,30 C21.1271731,29.9999958 13.8074045,33.0341764 8.41299502,38.4342128 C3.01858557,43.8342492 -0.0079619196,51.1571772 -1.77635684e-15,58.79 L-1.77635684e-15,66.09 C-4.61350914e-07,73.716707 3.03038137,81.0308979 8.42421527,86.4228563 C13.8180492,91.8148147 21.1332935,94.8426528 28.76,94.84 L52.25,94.84 L65.57,107.6 L65.57,93.65 C77.7887903,90.0463454 86.1772894,78.8291191 86.18,66.09 L86.18,58.79 C86.1879619,51.1571772 83.1614144,43.8342492 77.767005,38.4342128 C72.3725955,33.0341764 65.0528269,29.9999958 57.42,30 Z" id="Shape" fill="#8DD6E9" fill-rule="nonzero"></path>
            <path d="M46,44.18 L46,48.18 C49.22708,48.4627546 52.3400305,49.5118326 55.08,51.24 L52.36,55.9 C50.4148821,54.7085784 48.2534682,53.9133412 46,53.56 L46,60.5 C51.34,61.33 55.47,63.68 55.36,68.64 C55.23,74.01 51.12,76.93 46.03,77.64 L46.03,82 L41.2,82 L41.2,77.8 C37.4651493,77.5779868 33.8681063,76.3096653 30.82,74.14 L33.82,69.53 C35.9877997,71.1294004 38.5214636,72.1607426 41.19,72.53 L41.19,65.53 L40.95,65.53 C35.62,64.68 31.77,62.37 31.88,57.2 C31.97,52.28 35.88,49.1 41.19,48.36 L41.19,44.18 L46,44.18 Z M41.17,59.67 L41.17,53.67 C39.17,54.15 37.89,55.24 37.84,56.8 C37.79,58.36 39,59.13 41.17,59.67 Z M46,66.29 L46,72.29 C48,71.81 49.33,70.74 49.38,69.11 C49.4,67.7 48.2,66.85 46,66.29 Z" id="Shape" fill="#069ED9"></path>
            <g id="Clipped" transform="translate(30.000000, 44.000000)">
                <mask id="mask-4" fill="white">
                    <use xlink:href="#path-3"></use>
                </mask>
                <g id="Shape"></g>
                <g id="Group" mask="url(#mask-4)">
                    <g transform="translate(-272.000000, -160.000000)">
                        <polygon id="Shape" fill="#069ED9" fill-rule="nonzero" points="0.67 0.93 483.22 0.93 483.22 284.78 0.67 284.78"></polygon>
                        <g id="Clipped" stroke-width="1" fill="none" fill-rule="evenodd">
                            <mask id="mask-6" fill="white">
                                <use xlink:href="#path-5"></use>
                            </mask>
                            <g id="Shape"></g>
                            <polygon id="Shape" fill="#069ED9" fill-rule="nonzero" mask="url(#mask-6)" points="265.72 153.08 304.46 153.08 304.46 205.07 265.72 205.07"></polygon>
                        </g>
                    </g>
                </g>
            </g>
            <path d="M350.25,220.72 L368.44,220.72 C378.513674,220.72 386.68,212.553674 386.68,202.48 L386.68,197.85 C386.68,187.776326 378.513674,179.61 368.44,179.61 L353.54,179.61 L345.08,171.52 L345.08,180.36 C337.327761,182.649918 332.005488,189.766628 332,197.85 L332,202.48 C331.999999,207.319282 333.923081,211.960213 337.345907,215.381165 C340.768734,218.802116 345.410719,220.722653 350.25,220.72 Z" id="Shape" fill="#8DD6E9" fill-rule="nonzero"></path>
            <path d="M361.2,187.77 L361.2,190.33 C363.243585,190.51061 365.214704,191.175648 366.95,192.27 L365.23,195.27 C364.006557,194.513349 362.648256,194.000591 361.23,193.76 L361.23,198.16 C364.61,198.69 367.23,200.16 367.16,203.33 C367.08,206.74 364.47,208.59 361.24,209.06 L361.24,211.79 L358.18,211.79 L358.18,209.13 C355.809851,208.986908 353.52707,208.183259 351.59,206.81 L353.48,203.88 C354.860708,204.883716 356.46863,205.529633 358.16,205.76 L358.16,201.31 L358.01,201.31 C354.63,200.78 352.18,199.31 352.25,196.03 C352.31,192.91 354.77,190.89 358.16,190.42 L358.16,187.84 L361.2,187.77 Z M358.13,197.6 L358.13,193.79 C356.85,194.09 356.05,194.79 356.02,195.79 C355.99,196.79 356.78,197.25 358.13,197.6 Z M361.2,201.8 L361.2,205.62 C362.47,205.32 363.31,204.62 363.34,203.62 C363.37,202.62 362.59,202.16 361.2,201.8 Z" id="Shape" fill="#069ED9"></path>
            <g id="Clipped" transform="translate(351.000000, 187.000000)">
                <mask id="mask-8" fill="white">
                    <use xlink:href="#path-7"></use>
                </mask>
                <g id="Shape"></g>
                <g id="Group" mask="url(#mask-8)">
                    <g transform="translate(-173.000000, -101.000000)">
                        <polygon id="Shape" fill="#069ED9" fill-rule="nonzero" points="0.91 0.74 307.03 0.74 307.03 180.81 0.91 180.81"></polygon>
                        <g id="Clipped" stroke-width="1" fill="none" fill-rule="evenodd">
                            <mask id="mask-10" fill="white">
                                <use xlink:href="#path-9"></use>
                            </mask>
                            <g id="Shape"></g>
                            <polygon id="Shape" fill="#069ED9" fill-rule="nonzero" mask="url(#mask-10)" points="169.06 97.27 193.64 97.27 193.64 130.25 169.06 130.25"></polygon>
                        </g>
                    </g>
                </g>
            </g>
            <path d="M342.58,2.10910272e-15 L371.24,2.10910272e-15 C378.86844,-0.00265383204 386.1852,3.02655667 391.579322,8.4206783 C396.973443,13.8147999 400.002654,21.1315605 400,28.76 L400,36.05 C400.002654,43.6784395 396.973443,50.9952001 391.579322,56.3893217 C386.1852,61.7834433 378.86844,64.8126538 371.24,64.81 L347.75,64.81 L334.43,77.56 L334.43,63.62 C322.209654,60.0124316 313.821591,48.7917192 313.82,36.05 L313.82,28.76 C313.82,12.8762906 326.696291,1.13650603e-15 342.58,2.10910272e-15 Z" id="Shape" fill="#FFE3B6" fill-rule="nonzero"></path>
            <path d="M359.83,14.15 L359.83,18.15 C363.053846,18.4403656 366.16256,19.4925984 368.9,21.22 L366.18,25.88 C364.240074,24.6795087 362.082095,23.8740895 359.83,23.51 L359.83,30.45 C365.16,31.27 369.29,33.62 369.18,38.59 C369.05,43.96 364.94,46.88 359.85,47.59 L359.85,52 L355,52 L355,47.8 C351.265149,47.5779868 347.668106,46.3096653 344.62,44.14 L347.62,39.53 C349.792332,41.1213031 352.323875,42.151782 354.99,42.53 L354.99,35.53 L354.75,35.53 C349.42,34.68 345.57,32.37 345.68,27.19 C345.77,22.27 349.68,19.1 354.99,18.36 L354.99,14.15 L359.83,14.15 Z M355,29.64 L355,23.64 C353,24.11 351.72,25.2 351.68,26.77 C351.64,28.34 352.86,29.1 355,29.64 Z M359.84,36.26 L359.84,42.26 C361.84,41.78 363.16,40.72 363.21,39.09 C363.22,37.67 362,36.82 359.83,36.26 L359.84,36.26 Z" id="Shape" fill="#F3C067"></path>
            <g id="Clipped" transform="translate(344.000000, 14.000000)">
                <mask id="mask-12" fill="white">
                    <use xlink:href="#path-11"></use>
                </mask>
                <g id="Shape"></g>
                <g id="Group" mask="url(#mask-12)">
                    <g transform="translate(-272.000000, -160.000000)">
                        <polygon id="Shape" fill="#F3C067" fill-rule="nonzero" points="0.49 0.89 483.04 0.89 483.04 284.74 0.49 284.74"></polygon>
                        <g id="Clipped" stroke-width="1" fill="none" fill-rule="evenodd">
                            <mask id="mask-14" fill="white">
                                <use xlink:href="#path-13"></use>
                            </mask>
                            <g id="Shape"></g>
                            <polygon id="Shape" fill="#F3C067" fill-rule="nonzero" mask="url(#mask-14)" points="265.54 153.05 304.28 153.05 304.28 205.04 265.54 205.04"></polygon>
                        </g>
                    </g>
                </g>
            </g>
        </g>
    </g>
</svg>