<?xml version="1.0" encoding="UTF-8"?>
<svg width="38px" height="38px" viewBox="0 0 38 38" version="1.1" xmlns="http://www.w3.org/2000/svg">
    <title>check-circle</title>
    <desc>Created with Sketch.</desc>
    <g id="check-circle" stroke="none" stroke-width="1" fill="none" fill-rule="evenodd">
        <g fill="#1DB9B4" fill-rule="nonzero" id="Combined-Shape">
            <path d="M19,38 C8.50658976,38 0,29.4934102 0,19 C0,8.50658976 8.50658976,0 19,0 C29.4934102,0 38,8.50658976 38,19 C38,29.4934102 29.4934102,38 19,38 Z M30.4,13.5964085 C30.4,13.1983539 30.2627098,12.8600075 29.9881291,12.5813693 L27.9876128,10.5512907 C27.7130322,10.2726525 27.3796128,10.1333333 26.9873548,10.1333333 C26.5950967,10.1333333 26.2616774,10.2726525 25.9870967,10.5512907 L16.3375484,20.3583614 L12.0129032,15.9548822 C11.7383226,15.6762439 11.4049032,15.5369248 11.0126452,15.5369248 C10.6203871,15.5369248 10.2869677,15.6762439 10.0123871,15.9548822 L8.01187098,17.9849607 C7.73729033,18.263599 7.6,18.6019454 7.6,19 C7.6,19.3980546 7.73729033,19.736401 8.01187098,20.0150393 L15.3372903,27.4487092 C15.611871,27.7273475 15.9452903,27.8666667 16.3375484,27.8666667 C16.7298065,27.8666667 17.0632258,27.7273475 17.3378065,27.4487092 L29.9881291,14.6114478 C30.2627098,14.3328096 30.4,13.9944631 30.4,13.5964085 Z"></path>
        </g>
    </g>
</svg>
