<svg xmlns="http://www.w3.org/2000/svg" viewBox="0 0 1440 320"><path fill="#323232" fill-opacity="1" d="M0,160L15,144C30,128,60,96,90,96C120,96,150,128,180,128C210,128,240,96,270,96C300,96,330,128,360,170.7C390,213,420,267,450,261.3C480,256,510,192,540,186.7C570,181,600,235,630,256C660,277,690,267,720,272C750,277,780,299,810,277.3C840,256,870,192,900,144C930,96,960,64,990,58.7C1020,53,1050,75,1080,69.3C1110,64,1140,32,1170,48C1200,64,1230,128,1260,154.7C1290,181,1320,171,1350,176C1380,181,1410,203,1425,213.3L1440,224L1440,320L1425,320C1410,320,1380,320,1350,320C1320,320,1290,320,1260,320C1230,320,1200,320,1170,320C1140,320,1110,320,1080,320C1050,320,1020,320,990,320C960,320,930,320,900,320C870,320,840,320,810,320C780,320,750,320,720,320C690,320,660,320,630,320C600,320,570,320,540,320C510,320,480,320,450,320C420,320,390,320,360,320C330,320,300,320,270,320C240,320,210,320,180,320C150,320,120,320,90,320C60,320,30,320,15,320L0,320Z"></path></svg>
